<?xml version="1.0" encoding="utf-8"?>
<!-- Generator: Adobe Illustrator 27.4.1, SVG Export Plug-In . SVG Version: 6.00 Build 0)  -->
<svg version="1.1" id="Vrstva_1" xmlns="http://www.w3.org/2000/svg" xmlns:xlink="http://www.w3.org/1999/xlink" x="0px" y="0px"
	 viewBox="0 0 500 500" style="enable-background:new 0 0 500 500;" xml:space="preserve">
<style type="text/css">
	.st0{fill:none;}
	.st1{fill:#FFD278;}
	.st2{fill:#006838;}
	.st3{fill:#00A651;}
	.st4{fill:#FFFFFF;}
	.st5{fill:#990214;}
	.st6{fill:#BE1E2D;}
	.st7{fill:#8AFFAB;}
	.st8{fill:#E2A840;}
	.st9{fill:#FFEAC5;}
	.st10{fill:#008241;}
	.st11{fill:#005128;}
	.st12{fill:#003317;}
	.st13{fill:#EA5467;}
</style>
<g id="Vrstva_1_00000012467543809354010460000005033220134394908547_">
	<g>
		<g transform="translate(157.749141, 306.300537)">
		</g>
	</g>
	<g>
		<path class="st0" d="M255,154.1c5.6,0.4,14-0.1,22.3-5c0.3,0.8,0.6,1.9,1,3.2c-0.4-1.3-0.7-2.4-1-3.3c-8.9,5.2-17.9,5.4-23.4,4.9
			l0,0C254.3,154.1,254.6,154.1,255,154.1z"/>
		<path class="st0" d="M258.5,160.4c-0.9-1.5-1.8-2.9-2.8-4.2l0,0C256.7,157.4,257.6,158.9,258.5,160.4z"/>
		<path class="st0" d="M296.3,202c0.5-1.5,0.9-3,1.4-4.4C297.2,199,296.8,200.5,296.3,202z"/>
		<path class="st0" d="M294.3,207.4c0.7-1.7,1.3-3.4,1.9-5.2C295.6,203.9,295,205.6,294.3,207.4z"/>
		<path class="st0" d="M279.5,167L279.5,167c0.9-3.9,0.1-9.2-0.9-13.3l0,0C279.6,157.9,280.5,163.2,279.5,167z"/>
		<path class="st0" d="M244.8,189.2L244.8,189.2c0,0,0.1-0.1,0.2-0.1l0,0c0.1,0,0.2,0,0.3,0.1l9.5,11.5c0.3,0.4,0.7,0.6,1.1,0.8
			s0.9,0.3,1.4,0.2c0.5,0,1-0.2,1.4-0.4s0.8-0.6,1-1c0,0,0-0.1,0.1-0.1l7-15.7c0.1-0.1,0.2-0.1,0.3-0.2c0.1,0,0.2,0,0.2,0.1
			c3.5,4,6.5,8.4,9.1,13.1c0.2,0.4,0.6,0.8,1,1c0.4,0.3,0.9,0.4,1.4,0.4s1-0.1,1.5-0.3s0.8-0.6,1.1-1l10.5-15.4
			c0.1-0.1,0.2-0.2,0.4-0.2l0,0c0.1,0,0.1,0,0.1,0.1c2.7,4.8,4.5,10,5.4,15.5c-0.8-5.5-2.6-10.7-5.4-15.5c0-0.1-0.1-0.1-0.2-0.1
			c-0.2,0-0.3,0-0.4,0.2l-10.5,15.4c-0.3,0.4-0.7,0.8-1.1,1c-0.5,0.2-1,0.3-1.5,0.3s-0.9-0.2-1.4-0.4c-0.4-0.3-0.7-0.6-1-1
			c-2.6-4.7-5.6-9-9.1-13.1c-0.1-0.1-0.1-0.1-0.2-0.1s-0.2,0.1-0.3,0.2l-7,15.7c0,0,0,0.1-0.1,0.1c-0.2,0.4-0.6,0.8-1,1
			s-0.9,0.4-1.4,0.4s-0.9,0-1.4-0.2c-0.4-0.2-0.8-0.5-1.1-0.8l-9.5-11.5c-0.1-0.1-0.2-0.1-0.3-0.1s-0.2,0.1-0.3,0.2l0,0
			C244.7,189.3,244.7,189.2,244.8,189.2z"/>
		<path class="st0" d="M279,146.9c0.2,0.7,5.8,15.9,1.8,23.3c-0.9,1.7-2.2,2.9-4,3.5l0,0c1.8-0.7,3.1-1.8,4-3.5l0,0
			C284.9,162.8,279.3,147.6,279,146.9c-0.1-0.4-0.4-0.6-0.7-0.7c-0.2-0.1-0.4-0.1-0.5-0.1c0.2,0,0.3,0,0.5,0.1
			C278.7,146.4,278.9,146.6,279,146.9z"/>
		<path class="st0" d="M242.3,189l-0.6,4.6L242.3,189L242.3,189c0.1-0.3,0.1-0.4,0.2-0.5C242.4,188.6,242.3,188.7,242.3,189
			L242.3,189z"/>
		<path class="st0" d="M249.2,150.8c0.1,0,12.9,3.6,25.6-3C262.1,154.4,249.4,150.8,249.2,150.8c-0.3-0.1-0.6-0.1-0.9,0.1l0,0
			C248.6,150.7,248.9,150.7,249.2,150.8z"/>
		<path class="st0" d="M278.2,152.4c0.1,0.4,0.2,0.8,0.3,1.2C278.5,153.2,278.4,152.8,278.2,152.4z"/>
		<path class="st0" d="M295.6,136.1l0.1,0.3c1.6,4.8,3.6,12.7,4.7,22.2c-1.1-9.6-3.1-17.4-4.7-22.2L295.6,136.1
			c-0.8-2.5-3.7-7.4-9.8-11.1C291.9,128.8,294.8,133.6,295.6,136.1z"/>
		<path class="st0" d="M263.1,242L263.1,242c-1.6,0.1-3.1,0-4.5-0.2C260,242,261.5,242.1,263.1,242z"/>
		<path class="st0" d="M240.5,204.1L240.5,204.1L240.5,204.1L240.5,204.1L240.5,204.1z"/>
		<path class="st1" d="M244.8,189.2L244.8,189.2L244.8,189.2z"/>
		<path class="st1" d="M291.9,182c0.1,0,0.1,0,0.2,0c0,0,0,0,0.1,0l0,0c-0.2,0-0.3,0-0.4,0.2l-10.5,15.4c-0.3,0.4-0.7,0.8-1.1,1
			c-0.5,0.2-1,0.3-1.5,0.3s-0.9-0.2-1.4-0.4c-0.4-0.3-0.8-0.6-1-1c-2.6-4.7-5.6-9-9.1-13.1c-0.1-0.1-0.1-0.1-0.2-0.1
			s-0.2,0.1-0.3,0.2l-7,15.7c0,0,0,0.1-0.1,0.1c-0.2,0.4-0.6,0.8-1,1s-0.9,0.4-1.4,0.4s-0.9,0-1.4-0.2c-0.4-0.2-0.8-0.5-1.1-0.8
			l-9.5-11.5c-0.1-0.1-0.2-0.1-0.3-0.1c0.1,0,0.2,0,0.3,0.1l9.5,11.5c0.3,0.4,0.7,0.6,1.1,0.8c0.4,0.2,0.9,0.3,1.4,0.2h0.1
			c0.5,5.4,1.1,19.3-3.3,35.9c1.1,0.6,2.3,1.1,3.6,1.5c2.6,0.7,5.5,0.7,8.5,0.1C285.8,215.3,290.8,189.8,291.9,182z"/>
		<path class="st2" d="M249.8,237.7l0.1,0.1C249.9,237.8,249.9,237.8,249.8,237.7z"/>
		<path class="st2" d="M251,238.7L251,238.7L251,238.7z"/>
		<path class="st2" d="M263.1,242c-1.6,0.1-3.1,0-4.5-0.2c-0.5-0.1-1.1-0.2-1.6-0.3c-1.2-0.3-2.3-0.7-3.4-1.2
			c-1.4,6.4-3.8,12.3-7.3,17.8L263.1,242z"/>
		<path class="st3" d="M283.5,137.9c-1.9-3-3.9-4.6-6.1-4.8c-3.9-0.4-7.1,3.8-7.2,3.8c-0.2,0.3-0.5,0.4-0.8,0.4s-0.6,0-0.9-0.2
			s-0.4-0.5-0.5-0.8c0-0.3,0-0.6,0.2-0.9c0.2-0.2,4.1-5.3,9.3-4.8c1.1,0.1,2.1,0.5,3.1,1c-3.1-6.5-5.7-10.3-5.9-10.6
			c-8.2-1.5-17.9-0.7-28.8,2.5c-10.3,3.1-17.5,7.3-22.6,11.9c0.2,0.2,27.3,30.3,33.9,63.6l0,0l7-15.7c0,0,0-0.1,0.1-0.1
			c0.5-0.8,1.2-1.3,2.1-1.4c0.9-0.1,1.7,0.2,2.3,0.9c3.6,4.2,6.8,8.7,9.4,13.5c0.1,0.1,0.2,0.2,0.4,0.2c0.2,0,0.4-0.1,0.5-0.3
			l10.5-15.4c0.3-0.4,0.6-0.7,1-0.9s0.8-0.3,1.3-0.3l0,0C291.8,162.6,287.7,148.1,283.5,137.9z M243.7,138.4h-0.1
			c-2.7,1-4.7,3.8-5.8,8.3c-0.1,0.3-0.3,0.6-0.6,0.7c-0.3,0.2-0.6,0.2-0.9,0.1c-0.3-0.1-0.6-0.3-0.7-0.6c-0.2-0.3-0.2-0.6-0.1-0.9
			c1.4-5.4,3.9-8.7,7.4-10c5.8-2.1,11.9,2.4,12.2,2.6c0.1,0.1,0.3,0.2,0.3,0.3c0.1,0.1,0.2,0.3,0.2,0.4c0,0.2,0,0.3,0,0.5
			s-0.1,0.3-0.2,0.4c-0.1,0.1-0.2,0.2-0.4,0.3c-0.1,0.1-0.3,0.1-0.5,0.2s-0.3,0-0.5,0s-0.3-0.1-0.4-0.2
			C253.7,140.6,248.3,136.7,243.7,138.4z M247.8,152.4c-0.1-0.3-0.2-0.6,0-0.9c0.1-0.3,0.3-0.5,0.6-0.7l0,0l0,0
			c0.3-0.1,0.6-0.2,0.9-0.1c0.1,0,12.9,3.6,25.6-3c0.8-0.4,1.7-0.9,2.5-1.5c0.2-0.1,0.3-0.2,0.5-0.2s0.3,0,0.5,0.1
			c0.4,0.1,0.6,0.4,0.7,0.7c0.2,0.6,5.8,15.9,1.8,23.3l0,0c-0.9,1.7-2.2,2.9-4,3.5l0,0l0,0c-0.3,0.1-0.7,0.2-1.1,0.3
			c-10.4,2.4-14.8-4.9-18.7-11.3c-2.5-4.2-4.9-8.2-8.8-9.8C248.1,152.9,247.9,152.7,247.8,152.4z"/>
		<path class="st3" d="M219.1,140.2c0.1-0.1,0.1-0.2,0.2-0.3C219.2,140.1,219.1,140.1,219.1,140.2z"/>
		<path class="st3" d="M275.9,121.3c0.1,0,0.1,0,0.2,0C276,121.3,275.9,121.3,275.9,121.3z"/>
		<path class="st3" d="M223.1,135.9l0.1-0.1C223.2,135.8,223.2,135.8,223.1,135.9z"/>
		<path class="st3" d="M220,139.1c0.1-0.1,0.1-0.1,0.2-0.2C220.2,138.9,220.1,139,220,139.1z"/>
		<path class="st3" d="M278,121.8c0.1,0,0.1,0,0.2,0C278.1,121.8,278,121.8,278,121.8z"/>
		<path class="st3" d="M279.9,122.4c0.2,0.1,0.4,0.2,0.7,0.2C280.3,122.5,280.1,122.4,279.9,122.4z"/>
		<path class="st3" d="M218.2,141.3c0-0.1,0.1-0.1,0.1-0.2C218.3,141.2,218.3,141.3,218.2,141.3z"/>
		<path class="st3" d="M281.8,123.1c0.4,0.2,0.8,0.3,1.2,0.5C282.5,123.4,282.2,123.2,281.8,123.1z"/>
		<path class="st3" d="M240.5,204.1L240.5,204.1l1.3-10.4l0.6-4.6L240.5,204.1z"/>
		<path class="st4" d="M255,154.1c-0.4,0-0.7-0.1-1.1-0.1c0.2,0.2,0.5,0.5,0.7,0.8c0.2,0.2,0.3,0.4,0.5,0.6c0.2,0.2,0.4,0.5,0.6,0.7
			l0,0c0.8,1,1.6,2.1,2.2,3.3c0,0,10.3,0.7,20.7-5.6l0,0v-0.1c-0.1-0.4-0.2-0.8-0.3-1.2l0,0c-0.4-1.3-0.7-2.4-1-3.2
			C269,154,260.6,154.5,255,154.1z"/>
		<path class="st5" d="M275.1,171.8c0.1,0,0.1,0,0.2,0c-0.3,0.1-0.5,0.1-0.7,0.1C274.8,171.9,275,171.9,275.1,171.8z"/>
		<path class="st5" d="M270.5,172.1c0.2,0,0.4,0.1,0.6,0.1l0,0c-0.3,0-0.6-0.1-1-0.1C270.3,172.1,270.4,172.1,270.5,172.1z"/>
		<path class="st5" d="M272.1,172.2c0.1,0,0.1,0,0.2,0c-0.3,0-0.6,0-0.9,0C271.7,172.2,271.9,172.2,272.1,172.2z"/>
		<path class="st5" d="M269.2,171.8c0.1,0,0.2,0.1,0.2,0.1c0.1,0,0.3,0.1,0.4,0.1c-0.3-0.1-0.5-0.1-0.8-0.2
			C269,171.8,269.1,171.8,269.2,171.8z"/>
		<path class="st5" d="M269.8,163c2.6-1,5.5-0.4,7.9,1.4c-2.8-3.2-6.7-4.7-10.1-3.4c-2.5,0.9-4.2,3.1-5,5.9c1,1.3,2,2.4,3.2,3.3
			c-0.4-0.4-0.7-0.8-1.1-1.3C265.6,166.1,267.3,163.9,269.8,163z"/>
		<path class="st5" d="M278.8,165.9c0.2,0.4,0.5,0.8,0.7,1.2l0,0l0,0C279.3,166.6,279.1,166.2,278.8,165.9z"/>
		<path class="st5" d="M278.6,165.5c-0.2-0.4-0.5-0.7-0.8-1C278.1,164.8,278.4,165.2,278.6,165.5z"/>
		<path class="st5" d="M272.9,172.2c0.2,0,0.4,0,0.6,0c0.1,0,0.1,0,0.2,0C273.3,172.1,273.1,172.1,272.9,172.2z"/>
		<path class="st5" d="M267.7,171.3C267.7,171.3,267.8,171.3,267.7,171.3c-0.3-0.1-0.6-0.3-0.8-0.5
			C267.2,171,267.4,171.1,267.7,171.3z"/>
		<path class="st5" d="M267.9,171.3c0.3,0.1,0.6,0.2,0.9,0.3C268.4,171.6,268.1,171.5,267.9,171.3
			C267.8,171.3,267.9,171.3,267.9,171.3z"/>
		<path class="st5" d="M266.7,170.7c-0.2-0.1-0.5-0.3-0.7-0.5C266.2,170.4,266.5,170.6,266.7,170.7z"/>
		<path class="st6" d="M278.8,165.9c-0.1-0.1-0.2-0.2-0.2-0.4c-0.2-0.4-0.5-0.7-0.8-1c0,0,0-0.1-0.1-0.1l0,0
			c-2.4-1.8-5.3-2.4-7.9-1.4c-2.5,0.9-4.2,3.1-5,5.9c0.3,0.4,0.7,0.9,1.1,1.3l0,0c0,0,0.1,0,0.1,0.1c0.2,0.2,0.5,0.3,0.7,0.5
			c0.1,0,0.1,0.1,0.2,0.1c0.3,0.2,0.6,0.3,0.9,0.5l0,0c0.3,0.1,0.6,0.3,0.9,0.4c0,0,0,0,0.1,0h0.1c0,0,0,0,0.1,0
			c0.3,0.1,0.5,0.1,0.8,0.2h0.1c0.1,0,0.2,0,0.2,0c0.3,0.1,0.6,0.1,1,0.1c0.1,0,0.2,0,0.3,0c0.3,0,0.6,0,0.9,0h0.1
			c0.2,0,0.3,0,0.5,0s0.5,0,0.7-0.1c0.1,0,0.1,0,0.2,0c0.2,0,0.5-0.1,0.8-0.1c0.2,0,0.5-0.1,0.7-0.1c0.4-0.1,0.7-0.2,1.1-0.3
			c0.3-0.2,0.7-0.3,1-0.6c0.6-0.5,1.1-1,1.4-1.7l0,0c0.3-0.6,0.6-1.3,0.8-2.1C279.3,166.6,279.1,166.3,278.8,165.9z M276.3,170.1
			c-0.1,0.1-0.2,0.2-0.3,0.3c-0.1,0-0.3,0-0.4,0c-0.1-0.1-0.2-0.2-0.3-0.3c-0.1-0.1,0-0.3,0-0.4c0.1-0.1,0.2-0.2,0.3-0.3
			c0.1,0,0.3,0,0.4,0c0.1,0.1,0.2,0.2,0.3,0.3C276.3,169.8,276.3,169.9,276.3,170.1z M277.1,169.1c-0.1,0-0.1,0-0.2,0
			c0,0-0.1-0.1-0.1-0.2c0.1-0.5,0.3-0.9,0.3-1.4c0.1-0.7,0-1.3-0.5-1.8c-0.1-0.2,0.1-0.4,0.3-0.2c0.7,0.5,1.1,1.2,1.1,2
			C278.1,168.1,277.8,168.9,277.1,169.1z"/>
		<path class="st2" d="M223.5,135.5c-0.1,0.1-0.2,0.2-0.3,0.2l-0.1,0.1c-1.1,1-2,2-2.9,3c-0.1,0.1-0.1,0.1-0.2,0.2
			c-0.3,0.3-0.5,0.6-0.7,0.9c-0.1,0.1-0.1,0.2-0.2,0.3c-0.2,0.3-0.5,0.6-0.7,0.9c0,0.1-0.1,0.1-0.1,0.2c-3.7,5-5.3,10-6,13.6
			c-0.2,1.2-0.2,2.3,0.1,3.4c0.3,1.1,0.8,2.2,1.5,3.1c11.8,14.7,20.7,29,26.5,42.6l0,0l1.8-15.1v-0.1c0-0.2,0.1-0.3,0.2-0.5
			c0.1-0.3,0.3-0.6,0.6-0.9c0.4-0.4,0.8-0.6,1.3-0.7c0.5-0.1,1-0.1,1.5,0c0.5,0.2,0.9,0.4,1.2,0.9l9.5,11.5c0.1,0.1,0.2,0.2,0.4,0.2
			c0.2,0,0.4-0.1,0.5-0.3C250.8,165.8,223.7,135.7,223.5,135.5z"/>
		<path class="st7" d="M295.6,136.1c-0.8-2.5-3.7-7.4-9.8-11.1c-0.7-0.4-1.3-0.8-2-1.1c-0.3-0.1-0.5-0.2-0.8-0.4
			c-0.4-0.2-0.8-0.4-1.2-0.5c-0.4-0.2-0.8-0.3-1.2-0.5c-0.2-0.1-0.4-0.2-0.7-0.2c-0.6-0.2-1.2-0.4-1.7-0.5c-0.1,0-0.1,0-0.2,0
			c-0.6-0.2-1.3-0.3-1.9-0.5c-0.1,0-0.1,0-0.2,0c-0.3-0.1-0.6-0.1-0.9-0.2c0.2,0.3,2.8,4,5.9,10.6c2.3,1.3,4.4,3.8,6.2,7.5
			c0.2,0.3,0.2,0.6,0.1,0.9c-0.1,0.3-0.3,0.5-0.6,0.7h-0.1c-0.3,0.1-0.6,0.1-0.9,0s-0.5-0.3-0.6-0.6c-0.4-0.9-0.9-1.6-1.3-2.4
			c4.2,10.3,8.3,24.7,8.5,41.7l0,0c0,0,0,0,0.1,0c0.5,0,0.9,0.1,1.3,0.4c0.4,0.2,0.7,0.5,0.9,0.9c2,3.6,3.6,7.3,4.6,11.3
			c2.6-12.2,2.5-23.7,1.5-33.5c-1.1-9.6-3.1-17.4-4.7-22.2L295.6,136.1z"/>
		<path class="st8" d="M257.2,201.7L257.2,201.7c-0.5,0-1,0-1.4-0.2s-0.8-0.5-1.1-0.8l-9.5-11.5c-0.1-0.1-0.2-0.1-0.3-0.1l0,0
			c-0.1,0-0.1,0-0.2,0.1l0,0l-0.1,0.1l-2.3,19.3c2.6,6.7,4.5,13.6,5.6,20.7c0.2,1.1,0.3,2.1,0.4,3.2l0,0c1.1,1.6,2.4,3,4,4.1
			c0.5,0.4,1,0.7,1.6,1C258.3,221,257.7,207.1,257.2,201.7z"/>
		<path class="st9" d="M292.3,182l-0.1-0.1c0,0,0,0-0.1,0s-0.1,0-0.2,0c-1.1,7.8-6,33.3-25.9,57.2c3.3-0.7,6.9-2.2,10.7-4.5h0.1
			c8.1-8.8,13.7-18.1,17.5-27.3c0.7-1.7,1.3-3.4,1.9-5.2c0-0.1,0-0.2,0.1-0.2c0.5-1.5,0.9-3,1.4-4.4C296.8,192,295,186.9,292.3,182z
			"/>
		<path class="st10" d="M271.5,240l-0.6,0.2c-2.7,1-5.3,1.6-7.8,1.7l0,0l-16.8,16C256.3,252.5,264.6,246.4,271.5,240z"/>
		<path class="st11" d="M251,238.7L251,238.7c-0.4-0.3-0.7-0.6-1.1-0.8l-0.1-0.1c-0.4-0.3-0.7-0.6-1.1-1c0.6,10.2-1.1,17.3-2.5,21.2
			c3.5-5.5,5.9-11.4,7.3-17.8C252.7,239.8,251.8,239.2,251,238.7z"/>
		<path class="st12" d="M257.2,162.8c3.9,6.4,8.2,13.7,18.7,11.3c0.4-0.1,0.7-0.2,1.1-0.3l0,0c1.8-0.7,3.1-1.8,4-3.5
			c4-7.4-1.6-22.7-1.8-23.3c-0.1-0.4-0.4-0.6-0.7-0.7c-0.2-0.1-0.3-0.1-0.5-0.1s-0.3,0.1-0.5,0.2c-0.8,0.5-1.7,1-2.5,1.5
			c-12.7,6.6-25.4,3-25.6,3c-0.3-0.1-0.6-0.1-0.9,0.1l0,0c-0.3,0.1-0.5,0.4-0.6,0.7s-0.1,0.6,0,0.9c0.1,0.3,0.3,0.5,0.6,0.6
			C252.3,154.6,254.7,158.6,257.2,162.8z M277.3,149.1c0.3,0.8,0.6,1.9,1,3.3l0,0c0.1,0.4,0.2,0.8,0.3,1.2v0.1
			c1,4.1,1.9,9.4,0.9,13.3l0,0c-0.2,0.8-0.4,1.5-0.8,2.1l0,0c-0.3,0.7-0.8,1.3-1.4,1.7c-0.3,0.2-0.6,0.4-1,0.6
			c-0.3,0.2-0.7,0.3-1.1,0.3c-0.1,0-0.1,0-0.2,0c-0.2,0-0.4,0.1-0.6,0.1c-0.3,0-0.5,0.1-0.8,0.1c-0.1,0-0.1,0-0.2,0s-0.1,0-0.2,0
			c-0.2,0-0.4,0-0.6,0s-0.3,0-0.5,0H272c-0.1,0-0.1,0-0.2,0c-0.2,0-0.5,0-0.7,0c-0.1,0-0.2,0-0.3,0l0,0c-0.2,0-0.4,0-0.6-0.1
			c-0.1,0-0.2,0-0.4-0.1c-0.1,0-0.2,0-0.2,0h-0.1c-0.1,0-0.3-0.1-0.4-0.1s-0.2,0-0.2-0.1c-0.1,0-0.1,0-0.2-0.1c0,0,0,0-0.1,0h-0.1
			c0,0,0,0-0.1,0c-0.3-0.1-0.6-0.2-0.9-0.3l0,0l0,0c0,0,0,0-0.1,0c-0.3-0.1-0.6-0.3-0.8-0.5c-0.1,0-0.1-0.1-0.2-0.1
			c-0.2-0.1-0.5-0.3-0.7-0.5c0,0-0.1,0-0.1-0.1l0,0c-1.2-0.9-2.2-2-3.2-3.3c0.7-2.8,2.5-5,5-5.9c3.4-1.3,7.3,0.2,10.1,3.4l0,0
			c0,0,0,0.1,0.1,0.1c0.3,0.3,0.5,0.7,0.8,1c0.1,0.1,0.2,0.2,0.2,0.4c0.2,0.4,0.5,0.8,0.7,1.2c0.9-3.9,0.1-9.2-0.9-13.3
			c-10.4,6.4-20.7,5.6-20.7,5.6c-0.7-1.1-1.4-2.2-2.2-3.3c1,1.3,1.9,2.8,2.8,4.2c-0.9-1.5-1.8-2.9-2.8-4.3c-0.2-0.2-0.4-0.5-0.6-0.7
			c-0.2-0.2-0.3-0.4-0.5-0.6c-0.2-0.3-0.4-0.5-0.7-0.8l0,0C259.4,154.6,268.4,154.3,277.3,149.1z"/>
		<path class="st12" d="M298,135.7l-0.1-0.3c-1.2-3.9-5.4-9.8-13.1-13.6c-10.2-5-23.4-5.2-39.3-0.5c-12,3.6-21.2,9.1-27.4,16.5
			c-5.3,6.3-7.3,12.5-8.1,16.7c-0.3,1.5-0.2,3,0.2,4.5s1,2.8,2,4c14.1,17.6,22.7,33,27.8,46.1l0.6,1.5c4.9,13.2,6.2,23.9,6,31.9
			c-6.9,1.6-13.4,4.2-19.6,7.8c-4.7,2.7-9.2,5.7-13.3,9.2c-4.3,3.6-8.2,7.5-12.3,11.3c-0.6,0.6,0.1,1.7,0.8,1.1
			c6.9-5.1,14.1-9.7,21.2-14.4c6.5-4.3,13.5-7.9,20.9-10.2c0.7-0.2,1.4-0.4,2-0.6c-0.6,6.3-2.1,10.4-2.9,12.2
			c-0.1,0.3-0.2,0.6-0.1,0.9c0.1,0.3,0.2,0.6,0.4,0.8s0.5,0.4,0.8,0.5s0.6,0.1,0.9,0c0.1,0,0.1,0,0.2-0.1
			c8.1-4.3,15.8-9.3,22.8-15.2c6,1.3,11.4,4.2,15.2,9.2c9.9,13.3-7,25.1-17.1,30.8c-7.3,4.2-15.1,7.2-23.3,9.3
			c-6.1,1.5-14.4,3.5-19.8-0.8c-5.4-4.4-4.7-13-1.3-18.4c4.6-7.2,13-10.5,20.2-14.5c1.3-0.7,0.1-2.7-1.2-2.3
			c-7.7,2.6-16.1,6.5-21.2,13.2c-4.1,5.3-6,13.2-3.3,19.5c2.9,7,10.2,9.5,17.3,9c8.8-0.5,17.8-3.6,25.8-7.2
			c7.9-3.5,15.9-8,22.2-13.9c5-4.7,9.2-11,8.4-18.2c-0.8-7.7-6.9-13.6-13.6-16.9c-1.6-0.8-3.3-1.4-5-2c2.2-2,4.3-4,6.2-6.2
			c0,0,0,0,0.1-0.1c3.4-3.7,6.5-7.5,9.3-11.7c5.5-8.2,9.6-17,12.2-26.5c0.3-0.3,0.4-0.6,0.4-1v-0.2c1-3.8,1.8-7.7,2.4-11.6
			C305.4,163.7,300.9,145,298,135.7z M295.6,136.1l0.1,0.3c1.5,4.8,3.6,12.7,4.7,22.2c1.1,9.7,1.1,21.3-1.5,33.5
			c-1.1-4-2.6-7.7-4.6-11.3c-0.2-0.4-0.5-0.7-0.9-0.9s-0.8-0.4-1.3-0.4c0,0,0,0-0.1,0c-0.5,0-0.9,0.1-1.3,0.3s-0.8,0.5-1,0.9
			l-10.5,15.4c-0.1,0.2-0.3,0.3-0.5,0.3s-0.3-0.1-0.4-0.2c-2.7-4.8-5.8-9.3-9.4-13.5c-0.6-0.7-1.4-1-2.3-0.9s-1.7,0.6-2.1,1.4
			c0,0,0,0.1-0.1,0.1l-7,15.7l0,0c-0.1,0.2-0.3,0.2-0.5,0.3c-0.2,0-0.3,0-0.4-0.2l-9.5-11.5c-0.3-0.4-0.7-0.7-1.2-0.9s-1-0.2-1.5,0
			c-0.5,0.1-1,0.4-1.3,0.7s-0.4,0.6-0.6,0.9c-0.1,0.1-0.1,0.3-0.2,0.4v0.1l-0.6,4.7l-1.2,10.5l0,0l0,0
			c-5.8-13.6-14.7-27.9-26.5-42.6c-0.7-0.9-1.3-1.9-1.5-3.1c-0.3-1.1-0.3-2.3-0.1-3.4c0.7-3.6,2.3-8.6,6-13.6c0-0.1,0.1-0.1,0.1-0.2
			c0.2-0.3,0.5-0.6,0.7-0.9c0.1-0.1,0.1-0.2,0.2-0.3c0.2-0.3,0.5-0.6,0.7-0.9c0.1-0.1,0.1-0.1,0.2-0.2c0.9-1,1.8-2,2.9-3l0.1-0.1
			c0.1-0.1,0.2-0.2,0.3-0.2c5.1-4.5,12.3-8.8,22.6-11.9c10.9-3.2,20.6-4.1,28.8-2.5c0.3,0.1,0.6,0.1,0.9,0.2c0.1,0,0.1,0,0.2,0
			c0.6,0.1,1.3,0.3,1.9,0.5c0.1,0,0.1,0,0.2,0c0.6,0.2,1.2,0.3,1.7,0.5c0.2,0.1,0.4,0.2,0.7,0.2c0.4,0.2,0.8,0.3,1.2,0.5
			c0.4,0.2,0.8,0.3,1.2,0.5c0.3,0.1,0.5,0.2,0.8,0.4c0.7,0.4,1.4,0.7,2,1.1C291.9,128.7,294.8,133.6,295.6,136.1z M248.8,236.8
			c0.3,0.3,0.7,0.7,1.1,1l0.1,0.1c0.3,0.3,0.7,0.6,1.1,0.8l0,0c0.8,0.6,1.6,1.1,2.5,1.5c1.1,0.5,2.2,0.9,3.4,1.2
			c0.5,0.1,1.1,0.3,1.6,0.3c1.5,0.3,3,0.3,4.5,0.2c2.5-0.1,5.1-0.7,7.8-1.7l0.6-0.2c-6.9,6.4-15.2,12.4-25.2,17.9
			C247.6,254.1,249.4,247,248.8,236.8z M296.2,202.2c-0.6,1.7-1.2,3.4-1.9,5.2c-3.8,9.3-9.4,18.5-17.5,27.3h-0.1
			c-3.8,2.3-7.3,3.8-10.7,4.5c-3,0.6-5.9,0.6-8.5-0.1c-1.3-0.3-2.5-0.8-3.6-1.5c-0.5-0.3-1.1-0.6-1.6-1c-1.6-1.1-2.9-2.5-4-4.1l0,0
			c-0.1-1-0.3-2.1-0.4-3.2c-1.1-7.1-3-14-5.6-20.7l2.3-19.3l0,0c0.1-0.1,0.1-0.2,0.3-0.2c0.1,0,0.2,0,0.3,0.1l9.5,11.5
			c0.3,0.4,0.7,0.6,1.1,0.8s0.9,0.3,1.4,0.2c0.5,0,1-0.2,1.4-0.4s0.8-0.6,1-1c0,0,0-0.1,0.1-0.1l7-15.7c0.1-0.1,0.2-0.1,0.3-0.2
			c0.1,0,0.2,0,0.2,0.1c3.5,4,6.5,8.4,9.1,13.1c0.2,0.4,0.6,0.8,1,1c0.4,0.3,0.9,0.4,1.4,0.4s1-0.1,1.5-0.3s0.8-0.6,1.1-1l10.5-15.4
			c0.1-0.1,0.2-0.2,0.4-0.2c0.1,0,0.1,0,0.2,0.1c2.7,4.8,4.5,10,5.4,15.5c-0.4,1.5-0.9,3-1.4,4.4C296.3,202,296.2,202.1,296.2,202.2
			z"/>
		<path class="st12" d="M288.4,116.7c-0.9-6.2-5.5-10.4-11.3-12.3c-3-1.1-6.1-1.2-9.2-0.5c-2.4,0.5-6,1.4-7.5,3.5
			c-0.1,0.2-0.2,0.4,0,0.6c0.1,0.2,0.3,0.3,0.5,0.3c1.2,0,2.4-0.6,3.6-0.8c1.2-0.2,2.5-0.3,3.8-0.3c2.5,0.1,5,0.6,7.3,1.4
			c4.4,1.6,8.3,5.3,11.4,8.7C287.4,117.8,288.5,117.6,288.4,116.7z"/>
		<path class="st12" d="M219.2,119.8c-3.4,3.2-5.4,9.2-4.1,13.8c0.2,0.6,1,0.4,1.1-0.1c0.4-2,0.7-4,1.7-5.9c1-1.9,2.3-3.6,3.9-5
			c3.2-3,8-4.5,12.3-5.1c0.2,0,0.3-0.1,0.3-0.3c0-0.2,0-0.3-0.2-0.4C229,114.2,223.3,115.9,219.2,119.8z"/>
		<path class="st12" d="M268.4,135.4c-0.2,0.3-0.3,0.6-0.2,0.9c0,0.3,0.2,0.6,0.5,0.8s0.6,0.3,0.9,0.2c0.3,0,0.6-0.2,0.8-0.4
			c0,0,3.3-4.2,7.2-3.8c2.2,0.2,4.2,1.9,6.1,4.8c0.4,0.7,0.9,1.5,1.3,2.4c0.1,0.3,0.3,0.5,0.6,0.6c0.3,0.1,0.6,0.1,0.9,0h0.1
			c0.3-0.1,0.5-0.4,0.6-0.7s0.1-0.6-0.1-0.9c-1.8-3.7-3.9-6.2-6.2-7.5c-1-0.6-2.1-0.9-3.1-1C272.5,130.1,268.5,135.2,268.4,135.4z"
			/>
		<path class="st12" d="M254.1,140.9c0.2,0,0.3,0.1,0.5,0s0.3-0.1,0.5-0.2c0.1-0.1,0.3-0.2,0.4-0.3c0.1-0.1,0.2-0.3,0.2-0.4
			c0-0.2,0-0.3,0-0.5s-0.1-0.3-0.2-0.4c-0.1-0.1-0.2-0.2-0.3-0.3c-0.3-0.2-6.4-4.7-12.2-2.6c-3.5,1.3-6,4.6-7.4,10
			c-0.1,0.3-0.1,0.6,0.1,0.9c0.2,0.3,0.4,0.5,0.7,0.6s0.6,0,0.9-0.1c0.3-0.2,0.5-0.4,0.6-0.7c1.2-4.5,3.1-7.3,5.8-8.3h0.1
			c4.6-1.6,9.9,2.2,10,2.3C253.8,140.7,254,140.8,254.1,140.9z"/>
		<path class="st13" d="M278.1,167.5c-0.1-0.9-0.4-1.5-1.1-2c-0.2-0.1-0.4,0.1-0.3,0.2c0.5,0.5,0.6,1.1,0.5,1.8
			c-0.1,0.5-0.3,0.9-0.3,1.4c0,0.1,0,0.1,0.1,0.2c0.1,0,0.1,0.1,0.2,0C277.8,168.9,278.1,168.1,278.1,167.5z"/>
		<path class="st13" d="M276,169.3c-0.1-0.1-0.3-0.1-0.4,0s-0.2,0.2-0.3,0.3c-0.1,0.1-0.1,0.3,0,0.4c0.1,0.1,0.1,0.2,0.3,0.3
			c0.1,0.1,0.3,0.1,0.4,0s0.2-0.2,0.3-0.3c0.1-0.1,0.1-0.3,0-0.4C276.2,169.5,276.2,169.4,276,169.3z"/>
		<g>
			<path class="st0" d="M230.4,331.1c0.5-0.5,0.8-1.2,0.8-2.1s-0.3-1.6-0.8-2.2c-0.5-0.5-1.3-0.8-2.5-0.8H224v5.8h3.9
				C229,331.9,229.8,331.6,230.4,331.1z"/>
			<path class="st0" d="M189.5,329.1c0-0.9-0.3-1.6-0.8-2.2s-1.3-0.8-2.5-0.8h-4v6.1h4c1,0,1.8-0.2,2.4-0.7
				C189.2,330.8,189.5,330.1,189.5,329.1z"/>
			<path class="st0" d="M132.4,326h-4v6.1h4c1,0,1.8-0.2,2.4-0.7c0.6-0.5,0.8-1.3,0.8-2.3c0-0.9-0.3-1.6-0.8-2.2
				C134.3,326.3,133.5,326,132.4,326z"/>
			<polygon class="st0" points="155.2,335.6 161.4,335.6 158.3,326.8 			"/>
			<path class="st12" d="M136.8,323c-1.2-0.5-2.6-0.8-4.3-0.8h-8.3c-0.2,0-0.4,0.1-0.5,0.2s-0.2,0.3-0.2,0.5v19.8
				c0,0.2,0.1,0.4,0.2,0.5c0.2,0.1,0.3,0.2,0.5,0.2h3.5c0.2,0,0.4-0.1,0.5-0.2c0.1-0.2,0.2-0.3,0.2-0.5v-6.9h4.1
				c1.6,0,3.1-0.2,4.3-0.7s2.2-1.2,2.8-2.2c0.7-1,1-2.3,1-3.8s-0.3-2.8-1-3.8C139,324.3,138,323.5,136.8,323z M134.8,331.4
				c-0.6,0.5-1.4,0.7-2.4,0.7h-4V326h4c1.1,0,2,0.3,2.5,0.8c0.5,0.6,0.8,1.3,0.8,2.2C135.6,330.1,135.4,330.8,134.8,331.4z"/>
			<path class="st12" d="M161,322.5c-0.2-0.2-0.4-0.2-0.7-0.2h-3.9c-0.3,0-0.6,0.1-0.7,0.2c-0.2,0.2-0.3,0.4-0.4,0.6l-7.2,19.5
				c0,0.1,0,0.2,0,0.3c0,0.2,0.1,0.3,0.2,0.4c0.1,0.1,0.3,0.2,0.5,0.2h3.2c0.3,0,0.5-0.1,0.6-0.2c0.1-0.2,0.2-0.3,0.3-0.4l1.3-3.4
				h8.6l1.3,3.4c0,0.1,0.1,0.3,0.3,0.4s0.4,0.2,0.6,0.2h3.2c0.2,0,0.3-0.1,0.5-0.2c0.1-0.1,0.2-0.3,0.2-0.4s0-0.2-0.1-0.3l-7.2-19.5
				C161.3,322.8,161.2,322.6,161,322.5z M155.2,335.6l3.1-8.7l3.2,8.7H155.2z"/>
			<path class="st12" d="M190.6,335.2c1.2-0.5,2.2-1.2,2.8-2.2c0.7-1,1-2.3,1-3.8s-0.3-2.8-1-3.8s-1.6-1.8-2.8-2.3s-2.6-0.8-4.3-0.8
				H178c-0.2,0-0.4,0.1-0.5,0.2s-0.2,0.3-0.2,0.5v19.8c0,0.2,0.1,0.4,0.2,0.5c0.2,0.1,0.3,0.2,0.5,0.2h3.5c0.2,0,0.4-0.1,0.5-0.2
				c0.1-0.2,0.2-0.3,0.2-0.5v-6.9h4.1C188,335.9,189.4,335.6,190.6,335.2z M182.2,332.1V326h4c1.1,0,2,0.3,2.5,0.8
				c0.5,0.6,0.8,1.3,0.8,2.2c0,1-0.3,1.8-0.8,2.3c-0.6,0.5-1.4,0.7-2.4,0.7h-4.1V332.1z"/>
			<path class="st12" d="M204.4,322.2c-0.2,0-0.4,0.1-0.5,0.2s-0.2,0.3-0.2,0.5v19.8c0,0.2,0.1,0.4,0.2,0.5c0.2,0.1,0.3,0.2,0.5,0.2
				h3.5c0.2,0,0.4-0.1,0.5-0.2c0.1-0.2,0.2-0.3,0.2-0.5V323c0-0.2-0.1-0.4-0.2-0.5c-0.1-0.1-0.3-0.2-0.5-0.2L204.4,322.2
				L204.4,322.2z"/>
			<path class="st12" d="M212.2,316.7c0-0.4-0.2-0.6-0.6-0.6h-3.8c-0.3,0-0.5,0-0.6,0.1c-0.2,0.1-0.3,0.2-0.5,0.5l-2.6,3.1
				c-0.1,0.1-0.1,0.2-0.1,0.4c0,0.3,0.2,0.5,0.5,0.5h2.5c0.3,0,0.5,0,0.6-0.1c0.2-0.1,0.3-0.2,0.5-0.3l3.9-3.2
				C212.1,317,212.2,316.9,212.2,316.7z"/>
			<path class="st12" d="M223.8,343.3c0.2-0.2,0.2-0.3,0.2-0.5v-7h3.7l3.7,7c0.1,0.2,0.2,0.3,0.4,0.5s0.4,0.3,0.8,0.3h3.4
				c0.2,0,0.3-0.1,0.4-0.2c0.1-0.1,0.2-0.3,0.2-0.4s0-0.2-0.1-0.3l-4.3-7.6c1.2-0.5,2.1-1.2,2.8-2.2s1.1-2.2,1.1-3.7
				c0-2.2-0.7-3.9-2.2-5c-1.4-1.2-3.4-1.8-6-1.8h-8.1c-0.2,0-0.4,0.1-0.5,0.2s-0.2,0.3-0.2,0.5v19.8c0,0.2,0.1,0.4,0.2,0.5
				c0.2,0.1,0.3,0.2,0.5,0.2h3.3C223.5,343.5,223.7,343.4,223.8,343.3z M224,326h3.9c1.1,0,2,0.3,2.5,0.8s0.8,1.2,0.8,2.2
				c0,0.9-0.3,1.6-0.8,2.1s-1.3,0.7-2.4,0.7h-4V326z"/>
			<path class="st12" d="M263.2,342.7V323c0-0.2-0.1-0.4-0.2-0.5s-0.3-0.2-0.5-0.2h-3.1c-0.2,0-0.4,0.1-0.6,0.2
				c-0.1,0.1-0.2,0.3-0.2,0.5v12.4l-8.1-12.7c-0.1-0.1-0.1-0.2-0.3-0.3c-0.1-0.1-0.4-0.2-0.7-0.2h-2.8c-0.2,0-0.4,0.1-0.5,0.2
				s-0.2,0.3-0.2,0.5v19.8c0,0.2,0.1,0.4,0.2,0.5c0.2,0.1,0.3,0.2,0.5,0.2h3.1c0.2,0,0.4-0.1,0.5-0.2c0.1-0.2,0.2-0.3,0.2-0.5v-12
				l8.1,12.2c0,0.1,0.1,0.2,0.3,0.3c0.1,0.1,0.4,0.2,0.7,0.2h2.8c0.2,0,0.4-0.1,0.5-0.2C263.1,343.1,263.2,343,263.2,342.7z"/>
			<path class="st12" d="M277.9,343.5c0.2,0,0.4-0.1,0.5-0.2c0.1-0.2,0.2-0.3,0.2-0.5V323c0-0.2-0.1-0.4-0.2-0.5s-0.3-0.2-0.5-0.2
				h-3.5c-0.2,0-0.4,0.1-0.5,0.2s-0.2,0.3-0.2,0.5v19.8c0,0.2,0.1,0.4,0.2,0.5c0.2,0.1,0.3,0.2,0.5,0.2H277.9z"/>
			<path class="st12" d="M294.7,326.9c0.7-0.7,1.7-1.1,3-1.1c1.1,0,1.9,0.2,2.6,0.7c0.7,0.4,1.2,1.3,1.5,2.5
				c0.1,0.3,0.2,0.5,0.3,0.6c0.1,0.1,0.3,0.2,0.6,0.2h3.5c0.2,0,0.3-0.1,0.5-0.2c0.1-0.1,0.2-0.3,0.2-0.5c0-1.1-0.3-2-0.7-2.9
				c-0.5-0.9-1.1-1.6-1.9-2.3c-0.8-0.7-1.8-1.2-2.9-1.5s-2.4-0.5-3.7-0.5c-1.9,0-3.5,0.3-4.8,1c-1.3,0.6-2.4,1.6-3.1,2.8
				c-0.7,1.2-1.2,2.7-1.2,4.4c0,0.9,0,1.8,0,2.7c0,0.9,0,1.8,0,2.7c0.1,1.8,0.5,3.3,1.2,4.5s1.8,2.2,3.1,2.8
				c1.3,0.6,2.9,0.9,4.8,0.9c1.4,0,2.6-0.2,3.7-0.5c1.1-0.4,2.1-0.9,2.9-1.5c0.8-0.7,1.4-1.4,1.9-2.3c0.4-0.9,0.7-1.8,0.7-2.9
				c0-0.2,0-0.3-0.2-0.4c-0.1-0.1-0.3-0.2-0.5-0.2h-3.5c-0.3,0-0.4,0.1-0.6,0.2c-0.1,0.1-0.3,0.3-0.3,0.6c-0.3,1.2-0.8,2-1.5,2.5
				c-0.7,0.4-1.6,0.6-2.7,0.6c-1.2,0-2.2-0.3-3-1c-0.7-0.7-1.1-1.8-1.2-3.4c-0.1-1.7-0.1-3.4,0-5.1
				C293.6,328.7,294,327.6,294.7,326.9z"/>
			<path class="st12" d="M321.2,343.3c0.2,0.1,0.3,0.2,0.6,0.2h3.4c0.2,0,0.4-0.1,0.5-0.2c0.2-0.2,0.2-0.3,0.2-0.5v-16.3h5.5
				c0.2,0,0.4-0.1,0.5-0.2s0.2-0.3,0.2-0.5V323c0-0.2-0.1-0.4-0.2-0.5s-0.3-0.2-0.5-0.2h-15.9c-0.2,0-0.4,0.1-0.5,0.2
				s-0.2,0.3-0.2,0.5v2.7c0,0.2,0.1,0.4,0.2,0.5s0.3,0.2,0.5,0.2h5.5v16.3C321,343,321.1,343.1,321.2,343.3z"/>
			<path class="st12" d="M355.1,322.2c-0.3,0-0.6,0.1-0.7,0.3c-0.2,0.2-0.3,0.3-0.3,0.4l-4.7,14.9l-4.7-14.9
				c-0.1-0.1-0.2-0.3-0.3-0.4c-0.2-0.2-0.4-0.3-0.7-0.3h-3.2c-0.2,0-0.3,0.1-0.5,0.2c-0.1,0.1-0.2,0.3-0.2,0.4s0,0.2,0,0.3l6.3,19.5
				c0.1,0.3,0.2,0.5,0.4,0.6c0.2,0.2,0.5,0.2,0.8,0.2h4c0.3,0,0.6-0.1,0.8-0.2c0.2-0.2,0.3-0.4,0.4-0.6l6.3-19.5
				c0-0.1,0.1-0.2,0.1-0.3c0-0.2-0.1-0.3-0.2-0.4s-0.3-0.2-0.4-0.2H355.1z"/>
			<path class="st12" d="M376,316.1h-3.8c-0.3,0-0.5,0-0.6,0.1c-0.2,0.1-0.3,0.2-0.5,0.5l-2.6,3.1c-0.1,0.1-0.1,0.2-0.1,0.4
				c0,0.3,0.2,0.5,0.5,0.5h2.5c0.3,0,0.5,0,0.6-0.1c0.2-0.1,0.3-0.2,0.5-0.3l3.9-3.2c0.1-0.1,0.2-0.2,0.2-0.3
				C376.5,316.3,376.3,316.1,376,316.1z"/>
			<path class="st12" d="M368.2,343.3c0.2,0.1,0.3,0.2,0.5,0.2h3.5c0.2,0,0.4-0.1,0.5-0.2c0.1-0.2,0.2-0.3,0.2-0.5V323
				c0-0.2-0.1-0.4-0.2-0.5s-0.3-0.2-0.5-0.2h-3.5c-0.2,0-0.4,0.1-0.5,0.2s-0.2,0.3-0.2,0.5v19.8C368,343,368.1,343.1,368.2,343.3z"
				/>
		</g>
		<g>
			<g>
				<path class="st0" d="M252.6,374.8c-0.3,0.7-0.5,1.4-0.6,2.1c1.1-0.1,1.9-0.7,2.8-1.5c0.5-0.5,2.4-2.1,2.2-2.8
					C256.4,369.8,252.9,374.1,252.6,374.8z"/>
				<path class="st0" d="M280.2,368.3c-1.5,0-2.9,0.8-3.8,2c-0.9,1.4-1.4,3.5-1.6,5.1c-0.2,1.8-0.1,3.7,0.3,5.5
					c0.3,1.1,0.7,2.2,1.6,2.9c1.4,1.1,3.5,0.6,4.8-0.5c0.1-0.1,0.2-0.2,0.3-0.3c2.8-2.6,3.3-6.9,2.8-10.5
					C284.5,370,282.8,368.2,280.2,368.3z"/>
				<path class="st0" d="M155.4,372.7c-0.4,0.5-0.8,1-1.2,1.6c-1.1,1.6-2,3.4-2.7,5.2c-0.1,0.2-0.2,0.5-0.2,0.7
					c1.4,0,2.9,0.1,4.3,0.2c0-1.8-0.1-3.6-0.2-5.4C155.4,374.3,155.4,373.5,155.4,372.7z"/>
				<path class="st0" d="M126.4,374.8c-0.3,0.7-0.5,1.4-0.6,2.1c1.1-0.1,1.9-0.7,2.8-1.5c0.5-0.5,2.4-2.1,2.2-2.8
					C130.2,369.8,126.7,374.1,126.4,374.8z"/>
				<path class="st0" d="M350.7,368.3c-1.5,0-2.9,0.8-3.8,2c-0.9,1.4-1.4,3.5-1.6,5.1c-0.2,1.8-0.1,3.7,0.3,5.5
					c0.3,1.1,0.7,2.2,1.6,2.9c1.4,1.1,3.5,0.6,4.8-0.5c0.1-0.1,0.2-0.2,0.3-0.3c2.8-2.6,3.3-6.9,2.8-10.5
					C354.9,370,353.3,368.2,350.7,368.3z"/>
				<path class="st12" d="M110.1,364.2c-0.7,3.6-1.3,7.1-1.8,10.7h-5.7c0.1-0.9,0.2-1.8,0.3-2.7c0.2-1.9,0.2-4.1,0.9-5.9
					c1.4-3.8-4.6-5.4-6-1.7c-0.7,1.8-0.7,4.1-0.9,6.1c-0.3,2.2-0.5,4.3-0.8,6.5c-0.5,4.5-1.1,9.1-1.6,13.6c-0.5,4,5.7,3.9,6.2,0
					c0.4-3.3,0.8-6.5,1.2-9.8h5.7c-0.3,2.6-0.5,5.2-0.7,7.8c-0.3,4,5.9,4,6.2,0c0.6-7.7,1.6-15.4,3.1-23
					C116.8,361.9,110.9,360.3,110.1,364.2z"/>
				<path class="st12" d="M131.8,380.9c2.2-1.6,4.1-3.8,4.9-6.1c1.6-4.7-2.6-9.3-7.4-9.1c-5.1,0.2-8.4,5-9.3,9.5
					c-1.2,6-1.2,12.3-1.7,18.3c-0.3,4,5.9,4,6.2,0c0.2-3.3,0.5-6.5,0.8-9.8c3.5,2.3,6.6,5.2,9.1,8.6c2.3,3.2,7.7,0.1,5.3-3.1
					C137.4,386.1,134.8,383.3,131.8,380.9z M128.6,375.4c-0.9,0.8-1.7,1.4-2.8,1.5c0.1-0.7,0.3-1.4,0.6-2.1c0.3-0.8,3.8-5,4.4-2.2
					C131,373.3,129.1,375,128.6,375.4z"/>
				<path class="st12" d="M155.3,364.6c-4,1.7-7,6.9-8.7,10.6c-2.2,5-3.3,10.4-4.3,15.7c-0.7,3.9,5.2,5.6,5.9,1.7
					c0.4-2.1,0.7-4.2,1.2-6.2l6.2,0.2c0.1,1.7,0.1,3.3,0.2,4.9c0.1,4,6.3,4,6.2,0c-0.1-5.5-0.2-11-0.4-16.5
					C161.5,371.4,161.4,362,155.3,364.6z M151.3,380.2c0.1-0.2,0.2-0.5,0.2-0.7c0.7-1.8,1.6-3.6,2.7-5.2c0.4-0.6,0.8-1.1,1.2-1.6
					c0,0.8,0,1.7,0,2.4c0.1,1.8,0.1,3.6,0.2,5.4C154.2,380.3,152.7,380.3,151.3,380.2z"/>
				<path class="st12" d="M180.4,383.2c-4,1.2-11.1,1.5-10-4.8c0.7-4.3,4.7-7.7,9.1-7.4c4,0.3,4-5.9,0-6.2
					c-7.9-0.6-15,6.5-15.3,14.3c-0.2,3.9,1.7,7.6,5.1,9.5c4,2.2,8.6,1.7,12.8,0.5C185.9,388,184.3,382.1,180.4,383.2z"/>
				<path class="st12" d="M203.5,385.6c-0.4-4.1-1.9-7.8-4.5-10.7c2.4-2.2,4.3-5,5.9-7.8c2-3.5-3.3-6.6-5.3-3.1
					c-1.3,2.2-3.2,5.7-5.6,7.2c0.1-2.7,0.2-5.3,0.2-8c0-4-6.2-4-6.2,0c0,7.9-0.5,15.8-1.6,23.6c-0.2,1.7,0.4,3.3,2.1,3.8
					c1.4,0.4,3.6-0.5,3.8-2.2c0.5-3.5,0.9-6.9,1.2-10.4c2.1,2,3.5,4.7,3.8,7.6C197.7,389.5,203.9,389.6,203.5,385.6z"/>
				<path class="st12" d="M222.1,366.5c-0.3,2.4-0.6,4.8-0.9,7.2c-1,2-4,5.2-6.4,3.7c-2.3-1.5-0.9-6.7-0.1-8.6
					c1.6-3.7-4-6.3-5.6-2.6c-2.2,5.2-2.8,13.7,3.1,16.8c2.2,1.2,4.6,1.1,6.9,0.3c-0.7,1.8-1.9,3.4-3.8,4.2c-3.6,1.7-1.4,7.4,2.2,5.8
					c9.5-4.3,9.5-16.9,10.6-25.8C228.7,363.6,222.6,362.5,222.1,366.5z"/>
				<path class="st2" d="M258,380.9c2.2-1.6,4.1-3.8,4.9-6.1c1.6-4.7-2.6-9.3-7.4-9.1c-5.1,0.2-8.4,5-9.3,9.5
					c-1.2,6-1.2,12.3-1.7,18.3c-0.3,4,5.9,4,6.2,0c0.2-3.3,0.5-6.5,0.8-9.8c3.5,2.3,6.6,5.2,9.1,8.6c2.3,3.2,7.7,0.1,5.3-3.1
					C263.6,386.1,261,383.3,258,380.9z M254.8,375.4c-0.9,0.8-1.7,1.4-2.8,1.5c0.1-0.7,0.3-1.4,0.6-2.1c0.3-0.8,3.8-5,4.4-2.2
					C257.2,373.3,255.3,375,254.8,375.4z"/>
				<path class="st2" d="M289.5,366.8c-3.4-5.6-12.2-6.3-16.7-1.8c-4.3,3.7-5,12.4-3.7,17.2c0.9,3.3,3.1,6.8,6.4,7.9
					c3.5,1.2,7.4-0.1,10.2-2.4c2.8-2.4,4.5-5.8,5.1-9.4C291.4,374.8,291.4,370,289.5,366.8z M281.9,382.9c-0.1,0.1-0.2,0.2-0.3,0.3
					c-1.3,1.1-3.4,1.6-4.8,0.5c-0.9-0.7-1.3-1.8-1.6-2.9c-0.4-1.8-0.5-3.6-0.3-5.5c0.2-1.7,0.6-3.8,1.6-5.1c0.9-1.2,2.3-1.9,3.8-2
					c2.6,0,4.2,1.7,4.5,4.1C285.2,376,284.7,380.3,281.9,382.9z"/>
				<path class="st2" d="M312.1,385.2c-3.1,0.2-6.1,0.3-9.2,0.4c3.9-4.4,8.3-8.4,11.6-13.3c1.4-2.1-0.5-4.5-2.6-4.7
					c-4.1-0.3-8.1-0.5-12.2-0.5c-4,0-4,6.2,0,6.2c2.1,0,4.2,0,6.2,0.1c-4,4.7-8.7,8.8-12.3,14c-1.3,1.9,0.5,4.8,2.7,4.6
					c5.2-0.2,10.5-0.5,15.8-0.7C316.1,391.2,316.1,385.1,312.1,385.2z"/>
				<path class="st2" d="M334,364.7c-4.6-0.6-9.2-0.7-13.8-0.2c-3.9,0.4-4,6.6,0,6.2c1.2-0.1,2.4-0.2,3.6-0.2
					c-0.4,6-0.7,12.1-1.1,18.1c-0.2,4,6,4,6.2,0c0.4-6,0.7-12,1.1-18.1c1.3,0.1,2.6,0.2,4,0.4C337.9,371.4,337.9,365.2,334,364.7z"
					/>
				<path class="st2" d="M343.3,365c-4.3,3.7-5,12.4-3.7,17.2c0.9,3.3,3.1,6.8,6.4,7.9c3.5,1.2,7.4-0.1,10.2-2.4
					c2.8-2.4,4.5-5.8,5.1-9.4c0.5-3.6,0.6-8.3-1.4-11.5C356.5,361.2,347.7,360.5,343.3,365z M352.4,382.9c-0.1,0.1-0.2,0.2-0.3,0.3
					c-1.3,1.1-3.4,1.6-4.8,0.5c-0.9-0.7-1.3-1.8-1.6-2.9c-0.4-1.8-0.5-3.6-0.3-5.5c0.2-1.7,0.6-3.8,1.6-5.1c0.9-1.2,2.3-1.9,3.8-2
					c2.6,0,4.2,1.7,4.5,4.1C355.7,376,355.2,380.3,352.4,382.9z"/>
				<path class="st2" d="M377,363.9c-1.3,2.2-3.2,5.7-5.6,7.2c0.1-2.7,0.2-5.3,0.2-8c0-4-6.2-4-6.2,0c0,7.9-0.5,15.8-1.6,23.6
					c-0.2,1.7,0.4,3.3,2.1,3.8c1.4,0.4,3.6-0.5,3.8-2.2c0.5-3.5,0.9-6.9,1.2-10.4c2.1,2,3.5,4.7,3.8,7.6c0.4,3.9,6.6,4,6.2,0
					c-0.4-4.1-1.9-7.8-4.5-10.7c2.4-2.2,4.3-5,5.9-7.8C384.3,363.6,378.9,360.5,377,363.9z"/>
				<path class="st2" d="M399.4,366.5c-0.3,2.4-0.6,4.8-0.9,7.2c-1,2-4,5.2-6.4,3.7c-2.3-1.5-0.9-6.7-0.1-8.6c1.6-3.7-4-6.3-5.6-2.6
					c-2.2,5.2-2.8,13.7,3.1,16.8c2.2,1.2,4.6,1.1,6.9,0.3c-0.7,1.8-1.9,3.4-3.8,4.2c-3.6,1.7-1.4,7.4,2.2,5.8
					c9.5-4.3,9.5-16.9,10.6-25.8C406,363.6,399.9,362.5,399.4,366.5z"/>
			</g>
			<g>
				<path class="st12" d="M167.3,359c0.9,0.7,1.5,1.4,2.4,2.1c0.4,0.3,1,0.7,1.5,0.9c0.6,0.3,1.2,0.4,1.9,0.5c0.2,0,0.4,0,0.6,0
					c0.7,0,1.3-0.1,1.8-0.4c0.8-0.3,1.4-0.8,2-1.2c0.5-0.4,0.9-0.9,1.3-1.3c0.5-0.6,1-1.2,1.6-1.7c0.9-1,0.8-2.6-0.2-3.5
					s-2.6-0.8-3.5,0.2c-0.5,0.6-1,1.2-1.6,1.7c-0.4,0.4-0.8,0.8-1.1,1c-0.1,0.1-0.2,0.2-0.3,0.2l0,0v0.1v-0.1l0,0v0.1v-0.1v0.2v-0.2
					l0,0v0.2v-0.2c-0.2,0-0.4-0.1-0.5-0.1c-0.2-0.1-0.5-0.3-0.9-0.6c-0.4-0.4-1-0.9-1.8-1.6c-1-0.9-2.6-0.8-3.5,0.3
					C166.1,356.5,166.2,358.1,167.3,359L167.3,359z"/>
			</g>
		</g>
	</g>
</g>
<g id="Vrstva_2_00000003806843531205526990000008736358745376730797_">
</g>
</svg>
