<?xml version="1.0" encoding="UTF-8" standalone="no"?>
<svg
   viewBox="0 45 227.71999 221.66666"
   version="1.1"
   id="svg26"
   sodipodi:docname="dovolena.svg"
   width="227.71999"
   height="221.66666"
   inkscape:version="1.4.4 (dcaf3e7, 2026-05-05)"
   xmlns:inkscape="http://www.inkscape.org/namespaces/inkscape"
   xmlns:sodipodi="http://sodipodi.sourceforge.net/DTD/sodipodi-0.dtd"
   xmlns="http://www.w3.org/2000/svg"
   xmlns:svg="http://www.w3.org/2000/svg">
  <defs
     id="defs26" />
  <sodipodi:namedview
     id="namedview26"
     pagecolor="#505050"
     bordercolor="#ffffff"
     borderopacity="1"
     inkscape:showpageshadow="0"
     inkscape:pageopacity="0"
     inkscape:pagecheckerboard="1"
     inkscape:deskcolor="#505050"
     inkscape:zoom="3.7092362"
     inkscape:cx="99.750995"
     inkscape:cy="136.01183"
     inkscape:window-width="2560"
     inkscape:window-height="1351"
     inkscape:window-x="-9"
     inkscape:window-y="-9"
     inkscape:window-maximized="1"
     inkscape:current-layer="svg26" />
  <!-- slunečník -->
  <g
     transform="matrix(0.94868425,0,0,0.94868425,-18.76844,87.412881)"
     id="g4">
    <ellipse
       cx="100"
       cy="182"
       rx="40"
       ry="7"
       fill="#2b3a29"
       opacity="0.12"
       id="ellipse1" />
    <rect
       x="96"
       y="30"
       width="8"
       height="148"
       rx="4"
       fill="#e9d9b8"
       stroke="#2b3a29"
       stroke-width="3.5"
       id="rect1" />
    <g
       stroke="#2b3a29"
       stroke-width="4"
       stroke-linejoin="round"
       id="g3">
      <path
         d="M 100,26 C 60,34 32,62 26,95 q 12,10 24,0 12,10 25,0 C 72,64 82,40 100,26 Z"
         fill="#f2ce85"
         id="path1" />
      <path
         d="m 75,95 c -3,-31 7,-55 25,-69 18,14 28,38 25,69 q -13,10 -25,0 -12,10 -25,0 z"
         fill="#9dc3dc"
         id="path2" />
      <path
         d="m 100,26 c 18,14 28,38 25,69 q 13,10 25,0 12,10 24,0 C 168,62 140,34 100,26 Z"
         fill="#db8a76"
         id="path3" />
    </g>
    <circle
       cx="100"
       cy="24"
       r="6"
       fill="#5c8374"
       stroke="#2b3a29"
       stroke-width="3.5"
       id="circle3" />
  </g>
  <!-- míč (pod slunečníkem) -->
  <g
     transform="matrix(0.279375,0,0,0.279375,0.662485,209.82915)"
     id="g8">
    <ellipse
       cx="100"
       cy="181"
       rx="48"
       ry="7"
       fill="#2b3a29"
       opacity="0.12"
       id="ellipse4" />
    <g
       transform="translate(0,8)"
       id="g7">
      <g
         stroke="#2b3a29"
         stroke-width="3.5"
         stroke-linejoin="round"
         id="g6">
        <path
           d="M 120,66 C 93,60 60,74 39,97 A 62,62 0 0 1 160,92 C 152,77 138,67 120,66 Z"
           fill="#9dc3dc"
           id="path4" />
        <path
           d="M 120,66 C 93,60 60,74 39,97 a 62,62 0 0 0 50,72 c 2,-39 14,-73 31,-103 z"
           fill="#f2ce85"
           id="path5" />
        <path
           d="m 120,66 c 18,1 32,11 40,26 a 62,62 0 0 1 -71,77 c 2,-39 14,-73 31,-103 z"
           fill="#db8a76"
           id="path6" />
      </g>
      <circle
         cx="100"
         cy="108"
         r="62"
         fill="none"
         stroke="#2b3a29"
         stroke-width="4"
         id="circle6" />
    </g>
  </g>
  <!-- kufr na kolečkách (vpravo od slunečníku) -->
  <g
     transform="matrix(0.56703702,0,0,0.56703702,121.39638,154.57992)"
     id="g18">
    <ellipse
       cx="100"
       cy="188"
       rx="54"
       ry="7"
       fill="#2b3a29"
       opacity="0.12"
       id="ellipse8" />
    <rect
       x="76"
       y="32"
       width="8"
       height="46"
       fill="#e9d9b8"
       stroke="#2b3a29"
       stroke-width="3"
       id="rect8" />
    <rect
       x="116"
       y="32"
       width="8"
       height="46"
       fill="#e9d9b8"
       stroke="#2b3a29"
       stroke-width="3"
       id="rect9" />
    <rect
       x="69.653259"
       y="25.653261"
       width="60.693478"
       height="10.183849"
       rx="8.0924635"
       fill="#5c8374"
       stroke="#2b3a29"
       stroke-width="2.81615"
       id="rect10" />
    <rect
       x="86"
       y="62"
       width="28"
       height="18"
       rx="7"
       fill="#b8492f"
       stroke="#2b3a29"
       stroke-width="3.5"
       id="rect11" />
    <rect
       x="56"
       y="72"
       width="88"
       height="104"
       rx="16"
       fill="#e3a72b"
       stroke="#2b3a29"
       stroke-width="4"
       id="rect12" />
    <g
       fill="#f3ce7a"
       stroke="#2b3a29"
       stroke-width="2.5"
       id="g17">
      <rect
         x="68"
         y="84"
         width="8"
         height="80"
         rx="4"
         id="rect13" />
      <rect
         x="82"
         y="84"
         width="8"
         height="80"
         rx="4"
         id="rect14" />
      <rect
         x="96"
         y="84"
         width="8"
         height="80"
         rx="4"
         id="rect15" />
      <rect
         x="110"
         y="84"
         width="8"
         height="80"
         rx="4"
         id="rect16" />
      <rect
         x="124"
         y="84"
         width="8"
         height="80"
         rx="4"
         id="rect17" />
    </g>
    <circle
       cx="74"
       cy="180"
       r="7"
       fill="#2b3a29"
       id="circle17" />
    <circle
       cx="126"
       cy="180"
       r="7"
       fill="#2b3a29"
       id="circle18" />
  </g>
  <!-- nápis DOVOLENÁ v barvách slunečníku -->
  <g
     id="g27"
     transform="translate(-13.313103,62.31665)">
    <g
       id="g26">
      <text
         x="126.1521"
         y="14.295069"
         text-anchor="middle"
         font-family="Fraunces, Georgia, serif"
         font-size="34px"
         font-weight="700"
         letter-spacing="1"
         stroke="#2b3a29"
         stroke-width="1.2"
         paint-order="stroke"
         stroke-linejoin="round"
         id="text25"><tspan
           fill="#f2ce85"
           id="tspan18">D</tspan><tspan
           fill="#9dc3dc"
           id="tspan19">O</tspan><tspan
           fill="#db8a76"
           id="tspan20">V</tspan><tspan
           fill="#f2ce85"
           id="tspan21">O</tspan><tspan
           fill="#9dc3dc"
           id="tspan22">L</tspan><tspan
           fill="#db8a76"
           id="tspan23">E</tspan><tspan
           fill="#f2ce85"
           id="tspan24">N</tspan><tspan
           fill="#9dc3dc"
           id="tspan25">Á</tspan></text>
    </g>
  </g>
  <!-- datum -->
  <text
     x="114.03626"
     y="100.22382"
     text-anchor="middle"
     font-family="Karla, Arial, sans-serif"
     font-size="19px"
     font-weight="700"
     fill="#2b3a29"
     id="text26"
     style="fill:#2b3a29">4. – 18. července</text>
</svg>
