<svg xmlns="http://www.w3.org/2000/svg" viewBox="-4 30 164 222">
  <!-- levý svazek: 4 používané pastelky různých délek, opřené o levý roh -->
  <g transform="translate(57.9,90.6) rotate(-8)">
    <rect x="-6.5" y="0" width="13" height="110" fill="#F6D77E" stroke="#2B3A29" stroke-width="2"/>
    <polygon points="-6.5,0 6.5,0 0,-22" fill="#E8C39E" stroke="#2B3A29" stroke-width="2" stroke-linejoin="round"/>
    <polygon points="-2.3,-14.2 2.3,-14.2 0,-22" fill="#F6D77E"/>
  </g>
  <g transform="translate(34.9,58) rotate(-12)">
    <rect x="-6.5" y="0" width="13" height="145" fill="#5C8374" stroke="#2B3A29" stroke-width="2"/>
    <polygon points="-6.5,0 6.5,0 0,-22" fill="#E8C39E" stroke="#2B3A29" stroke-width="2" stroke-linejoin="round"/>
    <polygon points="-2.3,-14.2 2.3,-14.2 0,-22" fill="#5C8374"/>
  </g>
  <g transform="translate(32.1,115.5) rotate(-17)">
    <rect x="-6.5" y="0" width="13" height="88" fill="#E3A72B" stroke="#2B3A29" stroke-width="2"/>
    <polygon points="-6.5,0 6.5,0 0,-22" fill="#E8C39E" stroke="#2B3A29" stroke-width="2" stroke-linejoin="round"/>
    <polygon points="-2.3,-14.2 2.3,-14.2 0,-22" fill="#E3A72B"/>
  </g>
  <g transform="translate(8.2,94.2) rotate(-22)">
    <rect x="-6.5" y="0" width="13" height="108" fill="#B8492F" stroke="#2B3A29" stroke-width="2"/>
    <polygon points="-6.5,0 6.5,0 0,-22" fill="#E8C39E" stroke="#2B3A29" stroke-width="2" stroke-linejoin="round"/>
    <polygon points="-2.3,-14.2 2.3,-14.2 0,-22" fill="#B8492F"/>
  </g>

  <!-- pravý svazek: 3 pastelky, také každá jinak dlouhá -->
  <g transform="translate(111.7,104.7) rotate(10)">
    <rect x="-6.5" y="0" width="13" height="98" fill="#3F5C4E" stroke="#2B3A29" stroke-width="2"/>
    <polygon points="-6.5,0 6.5,0 0,-22" fill="#E8C39E" stroke="#2B3A29" stroke-width="2" stroke-linejoin="round"/>
    <polygon points="-2.3,-14.2 2.3,-14.2 0,-22" fill="#3F5C4E"/>
  </g>
  <g transform="translate(136.7,70.7) rotate(15)">
    <rect x="-6.5" y="0" width="13" height="132" fill="#F0B8A4" stroke="#2B3A29" stroke-width="2"/>
    <polygon points="-6.5,0 6.5,0 0,-22" fill="#E8C39E" stroke="#2B3A29" stroke-width="2" stroke-linejoin="round"/>
    <polygon points="-2.3,-14.2 2.3,-14.2 0,-22" fill="#F0B8A4"/>
  </g>
  <g transform="translate(146.6,99.4) rotate(21)">
    <rect x="-6.5" y="0" width="13" height="106" fill="#C08552" stroke="#2B3A29" stroke-width="2"/>
    <polygon points="-6.5,0 6.5,0 0,-22" fill="#E8C39E" stroke="#2B3A29" stroke-width="2" stroke-linejoin="round"/>
    <polygon points="-2.3,-14.2 2.3,-14.2 0,-22" fill="#C08552"/>
  </g>

  <!-- kelímek (neprůhledný, překrývá spodky pastelek) -->
  <path d="M22 148 L138 148 L128 238 Q127 246 119 246 L41 246 Q33 246 32 238 Z"
        fill="#FFFBF2" stroke="#2B3A29" stroke-width="3" stroke-linejoin="round"/>
  <path d="M26.9 196 L133.1 196 L131.5 212 L28.5 212 Z" fill="#E3A72B"/>
  <line x1="22" y1="148" x2="138" y2="148" stroke="#2B3A29" stroke-width="3"/>
</svg>
