<svg xmlns="http://www.w3.org/2000/svg" viewBox="38 0 124 206">
  <!-- SPODNÍ kostka (medová) — "3 / C" -->
  <g>
    <polygon points="100,72 155.4,104 100,136 44.6,104" fill="#F6D77E" stroke="#2B3A29" stroke-width="2.5" stroke-linejoin="round"/>
    <polygon points="44.6,104 100,136 100,200 44.6,168" fill="#E3A72B" stroke="#2B3A29" stroke-width="2.5" stroke-linejoin="round"/>
    <polygon points="100,136 155.4,104 155.4,168 100,200" fill="#C08552" stroke="#2B3A29" stroke-width="2.5" stroke-linejoin="round"/>
    <text transform="matrix(0.866 0.5 0 1 72.3 152)" x="0" y="11" font-family="Fraunces, Georgia, serif" font-size="30" font-weight="700" fill="#B8492F" text-anchor="middle">3</text>
    <text transform="matrix(0.866 -0.5 0 1 127.7 152)" x="0" y="11" font-family="Fraunces, Georgia, serif" font-size="30" font-weight="700" fill="#FFFBF2" text-anchor="middle">C</text>
  </g>

  <!-- PROSTŘEDNÍ kostka (šalvějová) — "2 / B" -->
  <g>
    <polygon points="100,32 141.6,56 100,80 58.4,56" fill="#BFD8C9" stroke="#2B3A29" stroke-width="2.5" stroke-linejoin="round"/>
    <polygon points="58.4,56 100,80 100,128 58.4,104" fill="#5C8374" stroke="#2B3A29" stroke-width="2.5" stroke-linejoin="round"/>
    <polygon points="100,80 141.6,56 141.6,104 100,128" fill="#3F5C4E" stroke="#2B3A29" stroke-width="2.5" stroke-linejoin="round"/>
    <text transform="matrix(0.866 0.5 0 1 79.2 92)" x="0" y="9" font-family="Fraunces, Georgia, serif" font-size="24" font-weight="700" fill="#FFFBF2" text-anchor="middle">2</text>
    <text transform="matrix(0.866 -0.5 0 1 120.8 92)" x="0" y="9" font-family="Fraunces, Georgia, serif" font-size="24" font-weight="700" fill="#F6D77E" text-anchor="middle">B</text>
  </g>

  <!-- HORNÍ kostka (cihlová) — "1 / A" -->
  <g>
    <polygon points="100,5 129.4,22 100,39 70.6,22" fill="#F0B8A4" stroke="#2B3A29" stroke-width="2.5" stroke-linejoin="round"/>
    <polygon points="70.6,22 100,39 100,73 70.6,56" fill="#B8492F" stroke="#2B3A29" stroke-width="2.5" stroke-linejoin="round"/>
    <polygon points="100,39 129.4,22 129.4,56 100,73" fill="#6E482C" stroke="#2B3A29" stroke-width="2.5" stroke-linejoin="round"/>
    <text transform="matrix(0.866 0.5 0 1 85.3 47.5)" x="0" y="7" font-family="Fraunces, Georgia, serif" font-size="19" font-weight="700" fill="#FFFBF2" text-anchor="middle">1</text>
    <text transform="matrix(0.866 -0.5 0 1 114.7 47.5)" x="0" y="7" font-family="Fraunces, Georgia, serif" font-size="19" font-weight="700" fill="#F0B8A4" text-anchor="middle">A</text>
  </g>
</svg>
