<svg xmlns="http://www.w3.org/2000/svg" viewBox="196 176 118 176">
  <ellipse cx="216" cy="292" rx="12" ry="27" fill="#C08552" stroke="#2B3A29" stroke-width="2.5" transform="rotate(18 216 292)"/>
  <ellipse cx="294" cy="292" rx="12" ry="27" fill="#C08552" stroke="#2B3A29" stroke-width="2.5" transform="rotate(-18 294 292)"/>
  <ellipse cx="255" cy="300" rx="40" ry="46" fill="#C08552" stroke="#2B3A29" stroke-width="2.5"/>
  <ellipse cx="255" cy="308" rx="22" ry="26" fill="#F0B8A4"/>
  <ellipse cx="225" cy="334" rx="16" ry="12" fill="#C08552" stroke="#2B3A29" stroke-width="2.5"/>
  <ellipse cx="285" cy="334" rx="16" ry="12" fill="#C08552" stroke="#2B3A29" stroke-width="2.5"/>
  <ellipse cx="225" cy="336" rx="8" ry="6" fill="#FFFBF2"/>
  <ellipse cx="285" cy="336" rx="8" ry="6" fill="#FFFBF2"/>
  <circle cx="228" cy="194" r="13" fill="#C08552" stroke="#2B3A29" stroke-width="2.5"/>
  <circle cx="282" cy="194" r="13" fill="#C08552" stroke="#2B3A29" stroke-width="2.5"/>
  <circle cx="228" cy="194" r="6" fill="#F0B8A4"/>
  <circle cx="282" cy="194" r="6" fill="#F0B8A4"/>
  <circle cx="255" cy="222" r="36" fill="#C08552" stroke="#2B3A29" stroke-width="2.5"/>
  <ellipse cx="255" cy="234" rx="15" ry="11" fill="#FFFBF2" stroke="#2B3A29" stroke-width="2"/>
  <ellipse cx="255" cy="229" rx="5" ry="4" fill="#2B3A29"/>
  <path d="M255 233 L255 238 M249 240 Q255 245 261 240" stroke="#2B3A29" stroke-width="2" fill="none" stroke-linecap="round"/>
  <circle cx="243" cy="215" r="3" fill="#2B3A29"/>
  <circle cx="267" cy="215" r="3" fill="#2B3A29"/>
</svg>
