<?xml version="1.0" encoding="UTF-8" standalone="no"?>
<svg
   viewBox="0 0 200 200"
   version="1.1"
   id="svg4"
   sodipodi:docname="mic.svg"
   inkscape:version="1.4.4 (dcaf3e7, 2026-05-05)"
   xmlns:inkscape="http://www.inkscape.org/namespaces/inkscape"
   xmlns:sodipodi="http://sodipodi.sourceforge.net/DTD/sodipodi-0.dtd"
   xmlns="http://www.w3.org/2000/svg"
   xmlns:svg="http://www.w3.org/2000/svg">
  <defs
     id="defs4" />
  <sodipodi:namedview
     id="namedview4"
     pagecolor="#505050"
     bordercolor="#ffffff"
     borderopacity="1"
     inkscape:showpageshadow="0"
     inkscape:pageopacity="0"
     inkscape:pagecheckerboard="1"
     inkscape:deskcolor="#505050"
     inkscape:zoom="5.665"
     inkscape:cx="100.08826"
     inkscape:cy="100"
     inkscape:window-width="2560"
     inkscape:window-height="1351"
     inkscape:window-x="-9"
     inkscape:window-y="-9"
     inkscape:window-maximized="1"
     inkscape:current-layer="svg4" />
  <!-- stín na zemi -->
  <ellipse
     cx="100"
     cy="181"
     rx="48"
     ry="7"
     fill="#2B3A29"
     opacity="0.12"
     id="ellipse1" />
  <!-- tři díly míče -->
  <!-- obrys koule -->
  <g
     id="g1"
     transform="translate(0,8)">
    <g
       stroke="#2b3a29"
       stroke-width="3.5"
       stroke-linejoin="round"
       id="g3">
      <!-- horní/levý díl - pastelově modrý -->
      <path
         d="M 120,66 C 93,60 60,74 39,97 A 62,62 0 0 1 160,92 C 152,77 138,67 120,66 Z"
         fill="#9dc3dc"
         id="path1" />
      <!-- spodní levý díl - pastelově žlutý -->
      <path
         d="M 120,66 C 93,60 60,74 39,97 a 62,62 0 0 0 50,72 c 2,-39 14,-73 31,-103 z"
         fill="#f2ce85"
         id="path2" />
      <!-- pravý díl - pastelově korálový -->
      <path
         d="m 120,66 c 18,1 32,11 40,26 a 62,62 0 0 1 -71,77 c 2,-39 14,-73 31,-103 z"
         fill="#db8a76"
         id="path3" />
    </g>
    <circle
       cx="100"
       cy="108"
       r="62"
       fill="none"
       stroke="#2b3a29"
       stroke-width="4"
       id="circle3" />
  </g>
  <!-- krémová čepička (pól míče) -->
</svg>
