<svg xmlns="http://www.w3.org/2000/svg" viewBox="8 12 204 200">
  <line x1="34" y1="32" x2="186" y2="32" stroke="#6E482C" stroke-width="3.5"/>
  <line x1="36" y1="58" x2="184" y2="58" stroke="#6E482C" stroke-width="3.5"/>
  <line x1="36" y1="90" x2="184" y2="90" stroke="#6E482C" stroke-width="3.5"/>
  <line x1="36" y1="122" x2="184" y2="122" stroke="#6E482C" stroke-width="3.5"/>
  <line x1="36" y1="154" x2="184" y2="154" stroke="#6E482C" stroke-width="3.5"/>
  <line x1="36" y1="186" x2="184" y2="186" stroke="#6E482C" stroke-width="3.5"/>
  <ellipse cx="46.0" cy="58" rx="5.2" ry="6.6" fill="#B8492F" stroke="#2B3A29" stroke-width="1.8"/>
  <ellipse cx="56.6" cy="58" rx="5.2" ry="6.6" fill="#B8492F" stroke="#2B3A29" stroke-width="1.8"/>
  <ellipse cx="67.2" cy="58" rx="5.2" ry="6.6" fill="#B8492F" stroke="#2B3A29" stroke-width="1.8"/>
  <ellipse cx="77.8" cy="58" rx="5.2" ry="6.6" fill="#B8492F" stroke="#2B3A29" stroke-width="1.8"/>
  <ellipse cx="88.4" cy="58" rx="5.2" ry="6.6" fill="#B8492F" stroke="#2B3A29" stroke-width="1.8"/>
  <ellipse cx="99.0" cy="58" rx="5.2" ry="6.6" fill="#B8492F" stroke="#2B3A29" stroke-width="1.8"/>
  <ellipse cx="109.6" cy="58" rx="5.2" ry="6.6" fill="#B8492F" stroke="#2B3A29" stroke-width="1.8"/>
  <ellipse cx="120.2" cy="58" rx="5.2" ry="6.6" fill="#B8492F" stroke="#2B3A29" stroke-width="1.8"/>
  <ellipse cx="130.8" cy="58" rx="5.2" ry="6.6" fill="#B8492F" stroke="#2B3A29" stroke-width="1.8"/>
  <ellipse cx="141.4" cy="58" rx="5.2" ry="6.6" fill="#B8492F" stroke="#2B3A29" stroke-width="1.8"/>
  <ellipse cx="46.0" cy="90" rx="5.2" ry="6.6" fill="#E3A72B" stroke="#2B3A29" stroke-width="1.8"/>
  <ellipse cx="56.6" cy="90" rx="5.2" ry="6.6" fill="#E3A72B" stroke="#2B3A29" stroke-width="1.8"/>
  <ellipse cx="67.2" cy="90" rx="5.2" ry="6.6" fill="#E3A72B" stroke="#2B3A29" stroke-width="1.8"/>
  <ellipse cx="77.8" cy="90" rx="5.2" ry="6.6" fill="#E3A72B" stroke="#2B3A29" stroke-width="1.8"/>
  <ellipse cx="88.4" cy="90" rx="5.2" ry="6.6" fill="#E3A72B" stroke="#2B3A29" stroke-width="1.8"/>
  <ellipse cx="99.0" cy="90" rx="5.2" ry="6.6" fill="#E3A72B" stroke="#2B3A29" stroke-width="1.8"/>
  <ellipse cx="109.6" cy="90" rx="5.2" ry="6.6" fill="#E3A72B" stroke="#2B3A29" stroke-width="1.8"/>
  <ellipse cx="170.0" cy="90" rx="5.2" ry="6.6" fill="#E3A72B" stroke="#2B3A29" stroke-width="1.8"/>
  <ellipse cx="159.4" cy="90" rx="5.2" ry="6.6" fill="#E3A72B" stroke="#2B3A29" stroke-width="1.8"/>
  <ellipse cx="148.8" cy="90" rx="5.2" ry="6.6" fill="#E3A72B" stroke="#2B3A29" stroke-width="1.8"/>
  <ellipse cx="46.0" cy="122" rx="5.2" ry="6.6" fill="#5C8374" stroke="#2B3A29" stroke-width="1.8"/>
  <ellipse cx="56.6" cy="122" rx="5.2" ry="6.6" fill="#5C8374" stroke="#2B3A29" stroke-width="1.8"/>
  <ellipse cx="67.2" cy="122" rx="5.2" ry="6.6" fill="#5C8374" stroke="#2B3A29" stroke-width="1.8"/>
  <ellipse cx="77.8" cy="122" rx="5.2" ry="6.6" fill="#5C8374" stroke="#2B3A29" stroke-width="1.8"/>
  <ellipse cx="88.4" cy="122" rx="5.2" ry="6.6" fill="#5C8374" stroke="#2B3A29" stroke-width="1.8"/>
  <ellipse cx="99.0" cy="122" rx="5.2" ry="6.6" fill="#5C8374" stroke="#2B3A29" stroke-width="1.8"/>
  <ellipse cx="109.6" cy="122" rx="5.2" ry="6.6" fill="#5C8374" stroke="#2B3A29" stroke-width="1.8"/>
  <ellipse cx="120.2" cy="122" rx="5.2" ry="6.6" fill="#5C8374" stroke="#2B3A29" stroke-width="1.8"/>
  <ellipse cx="170.0" cy="122" rx="5.2" ry="6.6" fill="#5C8374" stroke="#2B3A29" stroke-width="1.8"/>
  <ellipse cx="159.4" cy="122" rx="5.2" ry="6.6" fill="#5C8374" stroke="#2B3A29" stroke-width="1.8"/>
  <ellipse cx="46.0" cy="154" rx="5.2" ry="6.6" fill="#BFD8C9" stroke="#2B3A29" stroke-width="1.8"/>
  <ellipse cx="56.6" cy="154" rx="5.2" ry="6.6" fill="#BFD8C9" stroke="#2B3A29" stroke-width="1.8"/>
  <ellipse cx="67.2" cy="154" rx="5.2" ry="6.6" fill="#BFD8C9" stroke="#2B3A29" stroke-width="1.8"/>
  <ellipse cx="77.8" cy="154" rx="5.2" ry="6.6" fill="#BFD8C9" stroke="#2B3A29" stroke-width="1.8"/>
  <ellipse cx="88.4" cy="154" rx="5.2" ry="6.6" fill="#BFD8C9" stroke="#2B3A29" stroke-width="1.8"/>
  <ellipse cx="99.0" cy="154" rx="5.2" ry="6.6" fill="#BFD8C9" stroke="#2B3A29" stroke-width="1.8"/>
  <ellipse cx="170.0" cy="154" rx="5.2" ry="6.6" fill="#BFD8C9" stroke="#2B3A29" stroke-width="1.8"/>
  <ellipse cx="159.4" cy="154" rx="5.2" ry="6.6" fill="#BFD8C9" stroke="#2B3A29" stroke-width="1.8"/>
  <ellipse cx="148.8" cy="154" rx="5.2" ry="6.6" fill="#BFD8C9" stroke="#2B3A29" stroke-width="1.8"/>
  <ellipse cx="138.2" cy="154" rx="5.2" ry="6.6" fill="#BFD8C9" stroke="#2B3A29" stroke-width="1.8"/>
  <ellipse cx="46.0" cy="186" rx="5.2" ry="6.6" fill="#F0B8A4" stroke="#2B3A29" stroke-width="1.8"/>
  <ellipse cx="56.6" cy="186" rx="5.2" ry="6.6" fill="#F0B8A4" stroke="#2B3A29" stroke-width="1.8"/>
  <ellipse cx="67.2" cy="186" rx="5.2" ry="6.6" fill="#F0B8A4" stroke="#2B3A29" stroke-width="1.8"/>
  <ellipse cx="77.8" cy="186" rx="5.2" ry="6.6" fill="#F0B8A4" stroke="#2B3A29" stroke-width="1.8"/>
  <ellipse cx="88.4" cy="186" rx="5.2" ry="6.6" fill="#F0B8A4" stroke="#2B3A29" stroke-width="1.8"/>
  <ellipse cx="99.0" cy="186" rx="5.2" ry="6.6" fill="#F0B8A4" stroke="#2B3A29" stroke-width="1.8"/>
  <ellipse cx="109.6" cy="186" rx="5.2" ry="6.6" fill="#F0B8A4" stroke="#2B3A29" stroke-width="1.8"/>
  <ellipse cx="120.2" cy="186" rx="5.2" ry="6.6" fill="#F0B8A4" stroke="#2B3A29" stroke-width="1.8"/>
  <ellipse cx="130.8" cy="186" rx="5.2" ry="6.6" fill="#F0B8A4" stroke="#2B3A29" stroke-width="1.8"/>
  <ellipse cx="170.0" cy="186" rx="5.2" ry="6.6" fill="#F0B8A4" stroke="#2B3A29" stroke-width="1.8"/>
  <path d="M22 16 L38 16 L42 206 L14 206 Z" fill="#C08552" stroke="#2B3A29" stroke-width="2.5" stroke-linejoin="round"/>
  <path d="M182 16 L198 16 L206 206 L178 206 Z" fill="#C08552" stroke="#2B3A29" stroke-width="2.5" stroke-linejoin="round"/>
</svg>
