<svg xmlns="http://www.w3.org/2000/svg" viewBox="330 224 152 126">
  <rect x="342" y="238" width="12" height="108" rx="3" fill="#C08552" stroke="#2B3A29" stroke-width="2.5"/>
  <rect x="458" y="238" width="12" height="108" rx="3" fill="#C08552" stroke="#2B3A29" stroke-width="2.5"/>
  <rect x="334" y="228" width="144" height="13" rx="6" fill="#8B5E3C" stroke="#2B3A29" stroke-width="2.5"/>
  <line x1="354" y1="262" x2="458" y2="262" stroke="#6E482C" stroke-width="3"/>
  <line x1="354" y1="290" x2="458" y2="290" stroke="#6E482C" stroke-width="3"/>
  <line x1="354" y1="318" x2="458" y2="318" stroke="#6E482C" stroke-width="3"/>
  <circle cx="366" cy="262" r="9" fill="#E3A72B" stroke="#2B3A29" stroke-width="2"/>
  <circle cx="384" cy="262" r="9" fill="#E3A72B" stroke="#2B3A29" stroke-width="2"/>
  <circle cx="402" cy="262" r="9" fill="#E3A72B" stroke="#2B3A29" stroke-width="2"/>
  <circle cx="446" cy="262" r="9" fill="#5C8374" stroke="#2B3A29" stroke-width="2"/>
  <circle cx="364" cy="290" r="9" fill="#B8492F" stroke="#2B3A29" stroke-width="2"/>
  <circle cx="382" cy="290" r="9" fill="#B8492F" stroke="#2B3A29" stroke-width="2"/>
  <circle cx="430" cy="290" r="9" fill="#E3A72B" stroke="#2B3A29" stroke-width="2"/>
  <circle cx="448" cy="290" r="9" fill="#E3A72B" stroke="#2B3A29" stroke-width="2"/>
  <circle cx="368" cy="318" r="9" fill="#5C8374" stroke="#2B3A29" stroke-width="2"/>
  <circle cx="386" cy="318" r="9" fill="#5C8374" stroke="#2B3A29" stroke-width="2"/>
  <circle cx="404" cy="318" r="9" fill="#5C8374" stroke="#2B3A29" stroke-width="2"/>
  <circle cx="448" cy="318" r="9" fill="#B8492F" stroke="#2B3A29" stroke-width="2"/>
</svg>
