<svg xmlns="http://www.w3.org/2000/svg" viewBox="0 0 500 420">
  <ellipse cx="250" cy="372" rx="228" ry="10" fill="rgba(43,58,41,0.08)"/>

  <!-- horní polička -->
  <rect x="90" y="165" width="330" height="13" rx="4" fill="#8B5E3C"/>
  <rect x="90" y="165" width="330" height="4" rx="2" fill="#C08552"/>
  <path d="M112 178 L112 196 L130 178 Z" fill="#6E482C"/>
  <path d="M398 178 L398 196 L380 178 Z" fill="#6E482C"/>

  <!-- kelímek s pastelkami -->
  <g transform="translate(140 165) scale(0.6) translate(-80 -246)">
<!-- levý svazek: 4 používané pastelky různých délek, opřené o levý roh -->
  <g transform="translate(57.9,90.6) rotate(-8)">
    <rect x="-6.5" y="0" width="13" height="110" fill="#F6D77E" stroke="#2B3A29" stroke-width="2"/>
    <polygon points="-6.5,0 6.5,0 0,-22" fill="#E8C39E" stroke="#2B3A29" stroke-width="2" stroke-linejoin="round"/>
    <polygon points="-2.3,-14.2 2.3,-14.2 0,-22" fill="#F6D77E"/>
  </g>
  <g transform="translate(34.9,58) rotate(-12)">
    <rect x="-6.5" y="0" width="13" height="145" fill="#5C8374" stroke="#2B3A29" stroke-width="2"/>
    <polygon points="-6.5,0 6.5,0 0,-22" fill="#E8C39E" stroke="#2B3A29" stroke-width="2" stroke-linejoin="round"/>
    <polygon points="-2.3,-14.2 2.3,-14.2 0,-22" fill="#5C8374"/>
  </g>
  <g transform="translate(32.1,115.5) rotate(-17)">
    <rect x="-6.5" y="0" width="13" height="88" fill="#E3A72B" stroke="#2B3A29" stroke-width="2"/>
    <polygon points="-6.5,0 6.5,0 0,-22" fill="#E8C39E" stroke="#2B3A29" stroke-width="2" stroke-linejoin="round"/>
    <polygon points="-2.3,-14.2 2.3,-14.2 0,-22" fill="#E3A72B"/>
  </g>
  <g transform="translate(8.2,94.2) rotate(-22)">
    <rect x="-6.5" y="0" width="13" height="108" fill="#B8492F" stroke="#2B3A29" stroke-width="2"/>
    <polygon points="-6.5,0 6.5,0 0,-22" fill="#E8C39E" stroke="#2B3A29" stroke-width="2" stroke-linejoin="round"/>
    <polygon points="-2.3,-14.2 2.3,-14.2 0,-22" fill="#B8492F"/>
  </g>

  <!-- pravý svazek: 3 pastelky, také každá jinak dlouhá -->
  <g transform="translate(111.7,104.7) rotate(10)">
    <rect x="-6.5" y="0" width="13" height="98" fill="#3F5C4E" stroke="#2B3A29" stroke-width="2"/>
    <polygon points="-6.5,0 6.5,0 0,-22" fill="#E8C39E" stroke="#2B3A29" stroke-width="2" stroke-linejoin="round"/>
    <polygon points="-2.3,-14.2 2.3,-14.2 0,-22" fill="#3F5C4E"/>
  </g>
  <g transform="translate(136.7,70.7) rotate(15)">
    <rect x="-6.5" y="0" width="13" height="132" fill="#F0B8A4" stroke="#2B3A29" stroke-width="2"/>
    <polygon points="-6.5,0 6.5,0 0,-22" fill="#E8C39E" stroke="#2B3A29" stroke-width="2" stroke-linejoin="round"/>
    <polygon points="-2.3,-14.2 2.3,-14.2 0,-22" fill="#F0B8A4"/>
  </g>
  <g transform="translate(146.6,99.4) rotate(21)">
    <rect x="-6.5" y="0" width="13" height="106" fill="#C08552" stroke="#2B3A29" stroke-width="2"/>
    <polygon points="-6.5,0 6.5,0 0,-22" fill="#E8C39E" stroke="#2B3A29" stroke-width="2" stroke-linejoin="round"/>
    <polygon points="-2.3,-14.2 2.3,-14.2 0,-22" fill="#C08552"/>
  </g>

  <!-- kelímek (neprůhledný, překrývá spodky pastelek) -->
  <path d="M22 148 L138 148 L128 238 Q127 246 119 246 L41 246 Q33 246 32 238 Z"
        fill="#FFFBF2" stroke="#2B3A29" stroke-width="3" stroke-linejoin="round"/>
  <path d="M26.9 196 L133.1 196 L131.5 212 L28.5 212 Z" fill="#E3A72B"/>
  <line x1="22" y1="148" x2="138" y2="148" stroke="#2B3A29" stroke-width="3"/>
  </g>

  <!-- knihy -->
  <g transform="translate(85 0)">
<rect x="115" y="85" width="22" height="80" rx="3" fill="#5C8374" stroke="#2B3A29" stroke-width="2.5"/>
  <line x1="115" y1="96" x2="137" y2="96" stroke="#2B3A29" stroke-width="2"/>
  <line x1="115" y1="152" x2="137" y2="152" stroke="#2B3A29" stroke-width="2"/>
  <rect x="141" y="76" width="24" height="89" rx="3" fill="#B8492F" stroke="#2B3A29" stroke-width="2.5"/>
  <line x1="141" y1="88" x2="165" y2="88" stroke="#2B3A29" stroke-width="2"/>
  <line x1="141" y1="150" x2="165" y2="150" stroke="#2B3A29" stroke-width="2"/>
  <rect x="169" y="90" width="20" height="75" rx="3" fill="#E3A72B" stroke="#2B3A29" stroke-width="2.5"/>
  <circle cx="179" cy="110" r="5" fill="#FFFBF2" stroke="#2B3A29" stroke-width="2"/>
  <g transform="translate(205,165) rotate(-12)">
    <rect x="0" y="-82" width="22" height="82" rx="3" fill="#F0B8A4" stroke="#2B3A29" stroke-width="2.5"/>
    <line x1="0" y1="-70" x2="22" y2="-70" stroke="#2B3A29" stroke-width="2"/>
  </g>
  <rect x="246" y="150" width="86" height="15" rx="3" fill="#BFD8C9" stroke="#2B3A29" stroke-width="2.5"/>
  <rect x="252" y="135" width="74" height="15" rx="3" fill="#FFFBF2" stroke="#2B3A29" stroke-width="2.5"/>
  </g>

  <!-- Rubikova kostka na stojánku na stohu knih -->
  <g transform="translate(374 135) scale(0.38) translate(-150 -223)">
<ellipse cx="150" cy="216" rx="30" ry="7" fill="#2B3A29"/>
  <path d="M136 205 Q150 199 164 205 L160 214 Q150 218 140 214 Z" fill="#2B3A29" stroke="#2B3A29" stroke-width="2" stroke-linejoin="round"/>
  <polygon points="150.0,40.0 222.7,82.0 222.7,166.0 150.0,208.0 77.3,166.0 77.3,82.0" fill="#2B3A29" stroke="#2B3A29" stroke-width="5" stroke-linejoin="round"/>
  <polygon points="150.0,42.6 169.7,54.0 150.0,65.4 130.3,54.0" fill="#FFFBF2"/>
  <polygon points="174.2,56.6 194.0,68.0 174.2,79.4 154.5,68.0" fill="#B8492F"/>
  <polygon points="198.5,70.6 218.2,82.0 198.5,93.4 178.8,82.0" fill="#BFD8C9"/>
  <polygon points="125.8,56.6 145.5,68.0 125.8,79.4 106.0,68.0" fill="#F6D77E"/>
  <polygon points="150.0,70.6 169.7,82.0 150.0,93.4 130.3,82.0" fill="#BFD8C9"/>
  <polygon points="174.2,84.6 194.0,96.0 174.2,107.4 154.5,96.0" fill="#5C8374"/>
  <polygon points="101.5,70.6 121.2,82.0 101.5,93.4 81.8,82.0" fill="#FFFBF2"/>
  <polygon points="125.8,84.6 145.5,96.0 125.8,107.4 106.0,96.0" fill="#5C8374"/>
  <polygon points="150.0,98.6 169.7,110.0 150.0,121.4 130.3,110.0" fill="#B8492F"/>
  <polygon points="79.5,85.9 99.3,97.3 99.3,120.1 79.5,108.7" fill="#B8492F"/>
  <polygon points="103.8,99.9 123.5,111.3 123.5,134.1 103.8,122.7" fill="#BFD8C9"/>
  <polygon points="128.0,113.9 147.7,125.3 147.7,148.1 128.0,136.7" fill="#B8492F"/>
  <polygon points="79.5,113.9 99.3,125.3 99.3,148.1 79.5,136.7" fill="#5C8374"/>
  <polygon points="103.8,127.9 123.5,139.3 123.5,162.1 103.8,150.7" fill="#E3A72B"/>
  <polygon points="128.0,141.9 147.7,153.3 147.7,176.1 128.0,164.7" fill="#F6D77E"/>
  <polygon points="79.5,141.9 99.3,153.3 99.3,176.1 79.5,164.7" fill="#F6D77E"/>
  <polygon points="103.8,155.9 123.5,167.3 123.5,190.1 103.8,178.7" fill="#5C8374"/>
  <polygon points="128.0,169.9 147.7,181.3 147.7,204.1 128.0,192.7" fill="#B8492F"/>
  <polygon points="152.3,125.3 172.0,113.9 172.0,136.7 152.3,148.1" fill="#BFD8C9"/>
  <polygon points="176.5,111.3 196.2,99.9 196.2,122.7 176.5,134.1" fill="#B8492F"/>
  <polygon points="200.7,97.3 220.5,85.9 220.5,108.7 200.7,120.1" fill="#FFFBF2"/>
  <polygon points="152.3,153.3 172.0,141.9 172.0,164.7 152.3,176.1" fill="#5C8374"/>
  <polygon points="176.5,139.3 196.2,127.9 196.2,150.7 176.5,162.1" fill="#F6D77E"/>
  <polygon points="200.7,125.3 220.5,113.9 220.5,136.7 200.7,148.1" fill="#B8492F"/>
  <polygon points="152.3,181.3 172.0,169.9 172.0,192.7 152.3,204.1" fill="#B8492F"/>
  <polygon points="176.5,167.3 196.2,155.9 196.2,178.7 176.5,190.1" fill="#FFFBF2"/>
  <polygon points="200.7,153.3 220.5,141.9 220.5,164.7 200.7,176.1" fill="#5C8374"/>
  </g>

  <!-- spodní polička -->
  <rect x="10" y="346" width="480" height="16" rx="4" fill="#8B5E3C"/>
  <rect x="10" y="346" width="480" height="4" rx="2" fill="#C08552"/>

  <!-- dřevěný vláček -->
  <g transform="translate(30 346) scale(0.75) translate(-8 -150)">
<!-- podvozková deska -->
  <rect x="18" y="104" width="180" height="18" rx="4" fill="#8B5E3C" stroke="#2B3A29" stroke-width="2.5"/>
  <!-- zadní plošinka s kolíkem -->
  <rect x="216" y="88" width="8" height="18" rx="3" fill="#C08552" stroke="#2B3A29" stroke-width="2"/>
  <rect x="197" y="104" width="32" height="18" rx="4" fill="#6E482C" stroke="#2B3A29" stroke-width="2.5"/>
  <!-- přední nárazník -->
  <rect x="10" y="108" width="10" height="30" rx="5" fill="#6E482C" stroke="#2B3A29" stroke-width="2.5"/>
  <!-- kotel -->
  <rect x="30" y="62" width="105" height="42" rx="12" fill="#C08552" stroke="#2B3A29" stroke-width="2.5"/>
  <rect x="20" y="60" width="12" height="46" rx="5" fill="#6E482C" stroke="#2B3A29" stroke-width="2.5"/>
  <!-- komín s rozšířeným kloboukem -->
  <rect x="52" y="38" width="14" height="28" fill="#8B5E3C" stroke="#2B3A29" stroke-width="2.5"/>
  <path d="M46 18 L72 18 L68 40 L50 40 Z" fill="#6E482C" stroke="#2B3A29" stroke-width="2.5" stroke-linejoin="round"/>
  <!-- kabina s obloukovým okýnkem (průhledný výřez) -->
  <path d="M135 28 H197 V122 H135 Z M150 88 V64 Q150 50 166 50 Q182 50 182 64 V88 Z"
        fill="#8B5E3C" fill-rule="evenodd" stroke="#2B3A29" stroke-width="2.5" stroke-linejoin="round"/>
  <!-- střecha přesahující kabinu -->
  <rect x="124" y="16" width="84" height="16" rx="6" fill="#6E482C" stroke="#2B3A29" stroke-width="2.5"/>
  <!-- kola se spojovací tyčí -->
  <circle cx="78" cy="122" r="28" fill="#F6D77E" stroke="#2B3A29" stroke-width="2.5"/>
  <circle cx="170" cy="122" r="28" fill="#F6D77E" stroke="#2B3A29" stroke-width="2.5"/>
  <rect x="70" y="116" width="108" height="12" rx="6" fill="#C08552" stroke="#2B3A29" stroke-width="2.5"/>
  <circle cx="78" cy="122" r="4.5" fill="#FFFBF2" stroke="#2B3A29" stroke-width="2"/>
  <circle cx="170" cy="122" r="4.5" fill="#FFFBF2" stroke="#2B3A29" stroke-width="2"/>
  </g>

  <!-- věž z kostek -->
  <g transform="translate(272 346) scale(0.8) translate(-76 -194)">
<!-- SPODNÍ kostka (medová) — přední stěna rovně, spodní hrana vodorovná -->
  <g>
    <polygon points="40,130 104,130 126,108 62,108" fill="#F6D77E" stroke="#2B3A29" stroke-width="2.5" stroke-linejoin="round"/>
    <polygon points="104,130 126,108 126,172 104,194" fill="#C08552" stroke="#2B3A29" stroke-width="2.5" stroke-linejoin="round"/>
    <rect x="40" y="130" width="64" height="64" fill="#E3A72B" stroke="#2B3A29" stroke-width="2.5" stroke-linejoin="round"/>
  </g>

  <!-- PROSTŘEDNÍ kostka (šalvějová) — usazená na horní stěně spodní kostky -->
  <g>
    <polygon points="50.8,79.3 98.8,79.3 115.3,62.8 67.3,62.8" fill="#BFD8C9" stroke="#2B3A29" stroke-width="2.5" stroke-linejoin="round"/>
    <polygon points="98.8,79.3 115.3,62.8 115.3,110.8 98.8,127.3" fill="#3F5C4E" stroke="#2B3A29" stroke-width="2.5" stroke-linejoin="round"/>
    <rect x="50.8" y="79.3" width="48" height="48" fill="#5C8374" stroke="#2B3A29" stroke-width="2.5" stroke-linejoin="round"/>
  </g>

  <!-- HORNÍ kostka (cihlová) -->
  <g>
    <polygon points="60.2,42.9 94.2,42.9 105.9,31.2 71.9,31.2" fill="#F0B8A4" stroke="#2B3A29" stroke-width="2.5" stroke-linejoin="round"/>
    <polygon points="94.2,42.9 105.9,31.2 105.9,65.2 94.2,76.9" fill="#6E482C" stroke="#2B3A29" stroke-width="2.5" stroke-linejoin="round"/>
    <rect x="60.2" y="42.9" width="34" height="34" fill="#B8492F" stroke="#2B3A29" stroke-width="2.5" stroke-linejoin="round"/>
  </g>
  </g>

  <!-- počítadlo -->
  <g transform="translate(360 346) scale(0.62) translate(-8 -206)">
<line x1="34" y1="32" x2="186" y2="32" stroke="#6E482C" stroke-width="3.5"/>
  <line x1="36" y1="58" x2="184" y2="58" stroke="#6E482C" stroke-width="3.5"/>
  <line x1="36" y1="90" x2="184" y2="90" stroke="#6E482C" stroke-width="3.5"/>
  <line x1="36" y1="122" x2="184" y2="122" stroke="#6E482C" stroke-width="3.5"/>
  <line x1="36" y1="154" x2="184" y2="154" stroke="#6E482C" stroke-width="3.5"/>
  <line x1="36" y1="186" x2="184" y2="186" stroke="#6E482C" stroke-width="3.5"/>
  <ellipse cx="46.0" cy="58" rx="5.2" ry="6.6" fill="#B8492F" stroke="#2B3A29" stroke-width="1.8"/>
  <ellipse cx="56.6" cy="58" rx="5.2" ry="6.6" fill="#B8492F" stroke="#2B3A29" stroke-width="1.8"/>
  <ellipse cx="67.2" cy="58" rx="5.2" ry="6.6" fill="#B8492F" stroke="#2B3A29" stroke-width="1.8"/>
  <ellipse cx="77.8" cy="58" rx="5.2" ry="6.6" fill="#B8492F" stroke="#2B3A29" stroke-width="1.8"/>
  <ellipse cx="88.4" cy="58" rx="5.2" ry="6.6" fill="#B8492F" stroke="#2B3A29" stroke-width="1.8"/>
  <ellipse cx="99.0" cy="58" rx="5.2" ry="6.6" fill="#B8492F" stroke="#2B3A29" stroke-width="1.8"/>
  <ellipse cx="109.6" cy="58" rx="5.2" ry="6.6" fill="#B8492F" stroke="#2B3A29" stroke-width="1.8"/>
  <ellipse cx="120.2" cy="58" rx="5.2" ry="6.6" fill="#B8492F" stroke="#2B3A29" stroke-width="1.8"/>
  <ellipse cx="130.8" cy="58" rx="5.2" ry="6.6" fill="#B8492F" stroke="#2B3A29" stroke-width="1.8"/>
  <ellipse cx="141.4" cy="58" rx="5.2" ry="6.6" fill="#B8492F" stroke="#2B3A29" stroke-width="1.8"/>
  <ellipse cx="46.0" cy="90" rx="5.2" ry="6.6" fill="#E3A72B" stroke="#2B3A29" stroke-width="1.8"/>
  <ellipse cx="56.6" cy="90" rx="5.2" ry="6.6" fill="#E3A72B" stroke="#2B3A29" stroke-width="1.8"/>
  <ellipse cx="67.2" cy="90" rx="5.2" ry="6.6" fill="#E3A72B" stroke="#2B3A29" stroke-width="1.8"/>
  <ellipse cx="77.8" cy="90" rx="5.2" ry="6.6" fill="#E3A72B" stroke="#2B3A29" stroke-width="1.8"/>
  <ellipse cx="88.4" cy="90" rx="5.2" ry="6.6" fill="#E3A72B" stroke="#2B3A29" stroke-width="1.8"/>
  <ellipse cx="99.0" cy="90" rx="5.2" ry="6.6" fill="#E3A72B" stroke="#2B3A29" stroke-width="1.8"/>
  <ellipse cx="109.6" cy="90" rx="5.2" ry="6.6" fill="#E3A72B" stroke="#2B3A29" stroke-width="1.8"/>
  <ellipse cx="170.0" cy="90" rx="5.2" ry="6.6" fill="#E3A72B" stroke="#2B3A29" stroke-width="1.8"/>
  <ellipse cx="159.4" cy="90" rx="5.2" ry="6.6" fill="#E3A72B" stroke="#2B3A29" stroke-width="1.8"/>
  <ellipse cx="148.8" cy="90" rx="5.2" ry="6.6" fill="#E3A72B" stroke="#2B3A29" stroke-width="1.8"/>
  <ellipse cx="46.0" cy="122" rx="5.2" ry="6.6" fill="#5C8374" stroke="#2B3A29" stroke-width="1.8"/>
  <ellipse cx="56.6" cy="122" rx="5.2" ry="6.6" fill="#5C8374" stroke="#2B3A29" stroke-width="1.8"/>
  <ellipse cx="67.2" cy="122" rx="5.2" ry="6.6" fill="#5C8374" stroke="#2B3A29" stroke-width="1.8"/>
  <ellipse cx="77.8" cy="122" rx="5.2" ry="6.6" fill="#5C8374" stroke="#2B3A29" stroke-width="1.8"/>
  <ellipse cx="88.4" cy="122" rx="5.2" ry="6.6" fill="#5C8374" stroke="#2B3A29" stroke-width="1.8"/>
  <ellipse cx="99.0" cy="122" rx="5.2" ry="6.6" fill="#5C8374" stroke="#2B3A29" stroke-width="1.8"/>
  <ellipse cx="109.6" cy="122" rx="5.2" ry="6.6" fill="#5C8374" stroke="#2B3A29" stroke-width="1.8"/>
  <ellipse cx="120.2" cy="122" rx="5.2" ry="6.6" fill="#5C8374" stroke="#2B3A29" stroke-width="1.8"/>
  <ellipse cx="170.0" cy="122" rx="5.2" ry="6.6" fill="#5C8374" stroke="#2B3A29" stroke-width="1.8"/>
  <ellipse cx="159.4" cy="122" rx="5.2" ry="6.6" fill="#5C8374" stroke="#2B3A29" stroke-width="1.8"/>
  <ellipse cx="46.0" cy="154" rx="5.2" ry="6.6" fill="#BFD8C9" stroke="#2B3A29" stroke-width="1.8"/>
  <ellipse cx="56.6" cy="154" rx="5.2" ry="6.6" fill="#BFD8C9" stroke="#2B3A29" stroke-width="1.8"/>
  <ellipse cx="67.2" cy="154" rx="5.2" ry="6.6" fill="#BFD8C9" stroke="#2B3A29" stroke-width="1.8"/>
  <ellipse cx="77.8" cy="154" rx="5.2" ry="6.6" fill="#BFD8C9" stroke="#2B3A29" stroke-width="1.8"/>
  <ellipse cx="88.4" cy="154" rx="5.2" ry="6.6" fill="#BFD8C9" stroke="#2B3A29" stroke-width="1.8"/>
  <ellipse cx="99.0" cy="154" rx="5.2" ry="6.6" fill="#BFD8C9" stroke="#2B3A29" stroke-width="1.8"/>
  <ellipse cx="170.0" cy="154" rx="5.2" ry="6.6" fill="#BFD8C9" stroke="#2B3A29" stroke-width="1.8"/>
  <ellipse cx="159.4" cy="154" rx="5.2" ry="6.6" fill="#BFD8C9" stroke="#2B3A29" stroke-width="1.8"/>
  <ellipse cx="148.8" cy="154" rx="5.2" ry="6.6" fill="#BFD8C9" stroke="#2B3A29" stroke-width="1.8"/>
  <ellipse cx="138.2" cy="154" rx="5.2" ry="6.6" fill="#BFD8C9" stroke="#2B3A29" stroke-width="1.8"/>
  <ellipse cx="46.0" cy="186" rx="5.2" ry="6.6" fill="#F0B8A4" stroke="#2B3A29" stroke-width="1.8"/>
  <ellipse cx="56.6" cy="186" rx="5.2" ry="6.6" fill="#F0B8A4" stroke="#2B3A29" stroke-width="1.8"/>
  <ellipse cx="67.2" cy="186" rx="5.2" ry="6.6" fill="#F0B8A4" stroke="#2B3A29" stroke-width="1.8"/>
  <ellipse cx="77.8" cy="186" rx="5.2" ry="6.6" fill="#F0B8A4" stroke="#2B3A29" stroke-width="1.8"/>
  <ellipse cx="88.4" cy="186" rx="5.2" ry="6.6" fill="#F0B8A4" stroke="#2B3A29" stroke-width="1.8"/>
  <ellipse cx="99.0" cy="186" rx="5.2" ry="6.6" fill="#F0B8A4" stroke="#2B3A29" stroke-width="1.8"/>
  <ellipse cx="109.6" cy="186" rx="5.2" ry="6.6" fill="#F0B8A4" stroke="#2B3A29" stroke-width="1.8"/>
  <ellipse cx="120.2" cy="186" rx="5.2" ry="6.6" fill="#F0B8A4" stroke="#2B3A29" stroke-width="1.8"/>
  <ellipse cx="130.8" cy="186" rx="5.2" ry="6.6" fill="#F0B8A4" stroke="#2B3A29" stroke-width="1.8"/>
  <ellipse cx="170.0" cy="186" rx="5.2" ry="6.6" fill="#F0B8A4" stroke="#2B3A29" stroke-width="1.8"/>
  <path d="M22 16 L38 16 L42 206 L14 206 Z" fill="#C08552" stroke="#2B3A29" stroke-width="2.5" stroke-linejoin="round"/>
  <path d="M182 16 L198 16 L206 206 L178 206 Z" fill="#C08552" stroke="#2B3A29" stroke-width="2.5" stroke-linejoin="round"/>
  </g>
</svg>
