<svg xmlns="http://www.w3.org/2000/svg" viewBox="72 34 156 190">
  <ellipse cx="150" cy="216" rx="30" ry="7" fill="#2B3A29"/>
  <path d="M136 205 Q150 199 164 205 L160 214 Q150 218 140 214 Z" fill="#2B3A29" stroke="#2B3A29" stroke-width="2" stroke-linejoin="round"/>
  <polygon points="150.0,40.0 222.7,82.0 222.7,166.0 150.0,208.0 77.3,166.0 77.3,82.0" fill="#2B3A29" stroke="#2B3A29" stroke-width="5" stroke-linejoin="round"/>
  <polygon points="150.0,42.6 169.7,54.0 150.0,65.4 130.3,54.0" fill="#FFFBF2"/>
  <polygon points="174.2,56.6 194.0,68.0 174.2,79.4 154.5,68.0" fill="#B8492F"/>
  <polygon points="198.5,70.6 218.2,82.0 198.5,93.4 178.8,82.0" fill="#BFD8C9"/>
  <polygon points="125.8,56.6 145.5,68.0 125.8,79.4 106.0,68.0" fill="#F6D77E"/>
  <polygon points="150.0,70.6 169.7,82.0 150.0,93.4 130.3,82.0" fill="#BFD8C9"/>
  <polygon points="174.2,84.6 194.0,96.0 174.2,107.4 154.5,96.0" fill="#5C8374"/>
  <polygon points="101.5,70.6 121.2,82.0 101.5,93.4 81.8,82.0" fill="#FFFBF2"/>
  <polygon points="125.8,84.6 145.5,96.0 125.8,107.4 106.0,96.0" fill="#5C8374"/>
  <polygon points="150.0,98.6 169.7,110.0 150.0,121.4 130.3,110.0" fill="#B8492F"/>
  <polygon points="79.5,85.9 99.3,97.3 99.3,120.1 79.5,108.7" fill="#B8492F"/>
  <polygon points="103.8,99.9 123.5,111.3 123.5,134.1 103.8,122.7" fill="#BFD8C9"/>
  <polygon points="128.0,113.9 147.7,125.3 147.7,148.1 128.0,136.7" fill="#B8492F"/>
  <polygon points="79.5,113.9 99.3,125.3 99.3,148.1 79.5,136.7" fill="#5C8374"/>
  <polygon points="103.8,127.9 123.5,139.3 123.5,162.1 103.8,150.7" fill="#E3A72B"/>
  <polygon points="128.0,141.9 147.7,153.3 147.7,176.1 128.0,164.7" fill="#F6D77E"/>
  <polygon points="79.5,141.9 99.3,153.3 99.3,176.1 79.5,164.7" fill="#F6D77E"/>
  <polygon points="103.8,155.9 123.5,167.3 123.5,190.1 103.8,178.7" fill="#5C8374"/>
  <polygon points="128.0,169.9 147.7,181.3 147.7,204.1 128.0,192.7" fill="#B8492F"/>
  <polygon points="152.3,125.3 172.0,113.9 172.0,136.7 152.3,148.1" fill="#BFD8C9"/>
  <polygon points="176.5,111.3 196.2,99.9 196.2,122.7 176.5,134.1" fill="#B8492F"/>
  <polygon points="200.7,97.3 220.5,85.9 220.5,108.7 200.7,120.1" fill="#FFFBF2"/>
  <polygon points="152.3,153.3 172.0,141.9 172.0,164.7 152.3,176.1" fill="#5C8374"/>
  <polygon points="176.5,139.3 196.2,127.9 196.2,150.7 176.5,162.1" fill="#F6D77E"/>
  <polygon points="200.7,125.3 220.5,113.9 220.5,136.7 200.7,148.1" fill="#B8492F"/>
  <polygon points="152.3,181.3 172.0,169.9 172.0,192.7 152.3,204.1" fill="#B8492F"/>
  <polygon points="176.5,167.3 196.2,155.9 196.2,178.7 176.5,190.1" fill="#FFFBF2"/>
  <polygon points="200.7,153.3 220.5,141.9 220.5,164.7 200.7,176.1" fill="#5C8374"/>
</svg>
