<svg xmlns="http://www.w3.org/2000/svg" viewBox="268 87 52 52">
  <polygon points="272,101 282,91 316,91 306,101" fill="#F6D77E" stroke="#2B3A29" stroke-width="2.5" stroke-linejoin="round"/>
  <polygon points="306,101 316,91 316,125 306,135" fill="#B8492F" stroke="#2B3A29" stroke-width="2.5" stroke-linejoin="round"/>
  <rect x="272" y="101" width="34" height="34" fill="#E3A72B" stroke="#2B3A29" stroke-width="2.5"/>
  <rect x="283.33" y="112.33" width="11.33" height="11.33" fill="#5C8374"/>
  <rect x="294.67" y="101" width="11.33" height="11.33" fill="#B8492F"/>
  <line x1="283.33" y1="101" x2="283.33" y2="135" stroke="#2B3A29" stroke-width="2"/>
  <line x1="294.67" y1="101" x2="294.67" y2="135" stroke="#2B3A29" stroke-width="2"/>
  <line x1="272" y1="112.33" x2="306" y2="112.33" stroke="#2B3A29" stroke-width="2"/>
  <line x1="272" y1="123.67" x2="306" y2="123.67" stroke="#2B3A29" stroke-width="2"/>
  <line x1="309.33" y1="97.67" x2="309.33" y2="131.67" stroke="#2B3A29" stroke-width="2"/>
  <line x1="312.67" y1="94.33" x2="312.67" y2="128.33" stroke="#2B3A29" stroke-width="2"/>
  <line x1="306" y1="112.33" x2="316" y2="102.33" stroke="#2B3A29" stroke-width="2"/>
  <line x1="306" y1="123.67" x2="316" y2="113.67" stroke="#2B3A29" stroke-width="2"/>
  <line x1="283.33" y1="101" x2="293.33" y2="91" stroke="#2B3A29" stroke-width="2"/>
  <line x1="294.67" y1="101" x2="304.67" y2="91" stroke="#2B3A29" stroke-width="2"/>
  <line x1="275.33" y1="97.67" x2="309.33" y2="97.67" stroke="#2B3A29" stroke-width="2"/>
  <line x1="278.67" y1="94.33" x2="312.67" y2="94.33" stroke="#2B3A29" stroke-width="2"/>
</svg>
