<svg viewBox="0 0 200 200" xmlns="http://www.w3.org/2000/svg">
  <!-- stín na zemi -->
  <ellipse cx="100" cy="182" rx="40" ry="7" fill="#2B3A29" opacity="0.12"/>

  <!-- tyč -->
  <rect x="96" y="30" width="8" height="148" rx="4" fill="#E9D9B8" stroke="#2B3A29" stroke-width="3.5"/>

  <!-- kopule - tři díly s vlnkovým lemem -->
  <g stroke="#2B3A29" stroke-width="4" stroke-linejoin="round">
    <!-- levý díl - pastelově žlutý -->
    <path d="M100 26 C60 34 32 62 26 95 Q38 105 50 95 Q62 105 75 95 C72 64 82 40 100 26 Z" fill="#F2CE85"/>
    <!-- prostřední díl - pastelově modrý -->
    <path d="M75 95 C72 64 82 40 100 26 C118 40 128 64 125 95 Q112 105 100 95 Q88 105 75 95 Z" fill="#9DC3DC"/>
    <!-- pravý díl - pastelově korálový -->
    <path d="M100 26 C118 40 128 64 125 95 Q138 105 150 95 Q162 105 174 95 C168 62 140 34 100 26 Z" fill="#DB8A76"/>
  </g>

  <!-- knoflík nahoře -->
  <circle cx="100" cy="24" r="6" fill="#5C8374" stroke="#2B3A29" stroke-width="3.5"/>
</svg>
