<svg xmlns="http://www.w3.org/2000/svg" viewBox="4 12 230 142">
  <!-- podvozková deska -->
  <rect x="18" y="104" width="180" height="18" rx="4" fill="#8B5E3C" stroke="#2B3A29" stroke-width="2.5"/>
  <!-- zadní plošinka s kolíkem -->
  <rect x="216" y="88" width="8" height="18" rx="3" fill="#C08552" stroke="#2B3A29" stroke-width="2"/>
  <rect x="197" y="104" width="32" height="18" rx="4" fill="#6E482C" stroke="#2B3A29" stroke-width="2.5"/>
  <!-- přední nárazník -->
  <rect x="10" y="108" width="10" height="30" rx="5" fill="#6E482C" stroke="#2B3A29" stroke-width="2.5"/>
  <!-- kotel -->
  <rect x="30" y="62" width="105" height="42" rx="12" fill="#C08552" stroke="#2B3A29" stroke-width="2.5"/>
  <rect x="20" y="60" width="12" height="46" rx="5" fill="#6E482C" stroke="#2B3A29" stroke-width="2.5"/>
  <!-- komín s rozšířeným kloboukem -->
  <rect x="52" y="38" width="14" height="28" fill="#8B5E3C" stroke="#2B3A29" stroke-width="2.5"/>
  <path d="M46 18 L72 18 L68 40 L50 40 Z" fill="#6E482C" stroke="#2B3A29" stroke-width="2.5" stroke-linejoin="round"/>
  <!-- kabina s obloukovým okýnkem (průhledný výřez) -->
  <path d="M135 28 H197 V122 H135 Z M150 88 V64 Q150 50 166 50 Q182 50 182 64 V88 Z"
        fill="#8B5E3C" fill-rule="evenodd" stroke="#2B3A29" stroke-width="2.5" stroke-linejoin="round"/>
  <!-- střecha přesahující kabinu -->
  <rect x="124" y="16" width="84" height="16" rx="6" fill="#6E482C" stroke="#2B3A29" stroke-width="2.5"/>
  <!-- kola se spojovací tyčí -->
  <circle cx="78" cy="122" r="28" fill="#F6D77E" stroke="#2B3A29" stroke-width="2.5"/>
  <circle cx="170" cy="122" r="28" fill="#F6D77E" stroke="#2B3A29" stroke-width="2.5"/>
  <rect x="70" y="116" width="108" height="12" rx="6" fill="#C08552" stroke="#2B3A29" stroke-width="2.5"/>
  <circle cx="78" cy="122" r="4.5" fill="#FFFBF2" stroke="#2B3A29" stroke-width="2"/>
  <circle cx="170" cy="122" r="4.5" fill="#FFFBF2" stroke="#2B3A29" stroke-width="2"/>
</svg>
